;TYPE=PLATED
;Layer: PTH_Through
;EasyEDA Pro v2.2.35.2, 2025-01-16 15:30:06
;Gerber Generator version 0.3
M48
METRIC,LZ,0000.00000
;Hole size 1 = 0.90002 METRIC
T01C0.90002
%
G05
G90
T01
X0.0Y56.0
X4.76999Y55.76202
X9.46899Y54.06403
X13.02499Y51.22304
X16.07299Y46.47705
X16.45399Y40.33406
X15.875Y35.941
X14.29499Y30.58808
X11.557Y27.432
X8.89Y24.13
X5.15099Y22.82711
X-2.16802Y22.57501
X-6.35902Y23.25002
X-10.04202Y25.87003
X-13.34402Y28.61704
X-16.129Y32.258
X-17.907Y37.719
X-17.40802Y42.70007
X-15.75702Y47.86008
X-12.32802Y51.87709
X-8.89Y54.229
X-5.461Y56.261
X-2.413Y51.943
X-5.04901Y51.1081
X-8.001Y49.149
X-10.033Y46.355
X-12.319Y43.434
X-12.065Y39.751
X-11.52601Y35.72205
X-9.24001Y32.21304
X-6.731Y29.21
X-3.77901Y28.24302
X-1.016Y26.416
X1.762Y28.66911
X4.81Y29.0101
X7.35Y30.32709
X9.89Y32.15208
X11.303Y35.814
X10.906Y39.35806
X10.906Y43.21505
X9.382Y46.81804
X6.588Y49.53203
X3.413Y51.35702
X0.0Y52.0
M30