G04 Layer: TopLayer*
G04 EasyEDA Pro v2.2.35.2, 2025-01-16 15:30:06*
G04 Gerber Generator version 0.3*
G04 Scale: 100 percent, Rotated: No, Reflected: No*
G04 Dimensions in millimeters*
G04 Leading zeros omitted, absolute positions, 4 integers and 5 decimals*
%FSLAX45Y45*%
%MOMM*%
%ADD10C,0.2032*%
%ADD11C,0.254*%
%ADD12R,1.4X1.4*%
%ADD13C,1.524*%
G75*


G04 Copper Start*
G36*
G01X1964186Y3999992D02*
G02X-1964186Y3999992I-1964186J0D01*
G02X1964186Y3999992I1964186J0D01*
G37*
%LPC*%
G36*
G01X-1720700Y3666086D02*
G03X-1684886Y3701900I0J35814D01*
G01X-1684886Y3841900D01*
G03X-1720700Y3877714I-35814J0D01*
G01X-1860700Y3877714D01*
G03X-1896514Y3841900I0J-35814D01*
G01X-1896514Y3701900D01*
G03X-1860700Y3666086I35814J0D01*
G01X-1720700Y3666086D01*
G37*
G36*
G01X-724881Y3726080D02*
G03X-757073Y3620719I77181J-81180D01*
G01X-1046787Y3620719D01*
G01X-1046787Y3642205D01*
G03X-1082601Y3678019I-35814J0D01*
G01X-1222601Y3678019D01*
G03X-1258415Y3642205I0J-35814D01*
G01X-1258415Y3535000D01*
G01X-1507086Y3286329D01*
G01X-1507086Y3295800D01*
G03X-1542900Y3331614I-35814J0D01*
G01X-1682900Y3331614D01*
G03X-1718714Y3295800I0J-35814D01*
G01X-1718714Y3155800D01*
G03X-1682900Y3119986I35814J0D01*
G01X-1542900Y3119986D01*
G03X-1507086Y3155800I0J35814D01*
G01X-1507086Y3177286D01*
G01X-1499006Y3177286D01*
G03X-1464702Y3191495I0J48514D01*
G01X-1189806Y3466391D01*
G01X-1082601Y3466391D01*
G03X-1046787Y3502205I0J35814D01*
G01X-1046787Y3523691D01*
G01X-720395Y3523691D01*
G03X-686090Y3537901I0J48514D01*
G01X-684787Y3539204D01*
G03X-631383Y3534081I37087J105696D01*
G03X-639096Y3442713I97983J-54281D01*
G01X-811991Y3269818D01*
G01X-818187Y3269818D01*
G01X-818187Y3291304D01*
G03X-854001Y3327118I-35814J0D01*
G01X-994001Y3327118D01*
G03X-1029815Y3291304I0J-35814D01*
G01X-1029815Y3184099D01*
G01X-1249599Y2964315D01*
G03X-1264402Y2967518I-14803J-32612D01*
G01X-1404402Y2967518D01*
G03X-1440216Y2931704I0J-35814D01*
G01X-1440216Y2791704D01*
G03X-1404402Y2755890I35814J0D01*
G01X-1264402Y2755890D01*
G03X-1228588Y2791704I0J35814D01*
G01X-1228588Y2848108D01*
G01X-961206Y3115490D01*
G01X-854001Y3115490D01*
G03X-818187Y3151304I0J35814D01*
G01X-818187Y3172790D01*
G01X-791896Y3172790D01*
G03X-757591Y3187000I0J48514D01*
G01X-570487Y3374104D01*
G03X-490517Y3376320I37087J105696D01*
G03X-429514Y3251837I109517J-23520D01*
G01X-429514Y3233195D01*
G01X-635895Y3026814D01*
G01X-743100Y3026814D01*
G03X-778914Y2991000I0J-35814D01*
G01X-778914Y2883795D01*
G01X-969893Y2692817D01*
G01X-1074202Y2692817D01*
G03X-1110016Y2657003I0J-35814D01*
G01X-1110016Y2517003D01*
G03X-1074202Y2481189I35814J0D01*
G01X-934202Y2481189D01*
G03X-898388Y2517003I0J35814D01*
G01X-898388Y2627103D01*
G01X-710305Y2815186D01*
G01X-603100Y2815186D01*
G03X-567286Y2851000I0J35814D01*
G01X-567286Y2958205D01*
G01X-346695Y3178795D01*
G03X-332486Y3213100I-34305J34305D01*
G01X-332486Y3251837D01*
G03X-315200Y3262149I-48514J100963D01*
G03X-251714Y3162937I112000J1751D01*
G01X-251714Y3019099D01*
G01X-340696Y2930116D01*
G01X-447901Y2930116D01*
G03X-483715Y2894302I0J-35814D01*
G01X-483715Y2787097D01*
G01X-670206Y2600606D01*
G03X-684416Y2566302I34305J-34305D01*
G01X-684416Y2430816D01*
G01X-705902Y2430816D01*
G03X-741716Y2395002I0J-35814D01*
G01X-741716Y2255002D01*
G03X-705902Y2219188I35814J0D01*
G01X-565902Y2219188D01*
G03X-530088Y2255002I0J35814D01*
G01X-530088Y2395002D01*
G03X-565902Y2430816I-35814J0D01*
G01X-587388Y2430816D01*
G01X-587388Y2546207D01*
G01X-415106Y2718488D01*
G01X-307901Y2718488D01*
G03X-272087Y2754302I0J35814D01*
G01X-272087Y2861507D01*
G01X-168895Y2964699D01*
G03X-154686Y2999003I-34305J34305D01*
G01X-154686Y3162937D01*
G03X-107234Y3206127I-48514J100963D01*
G03X-48514Y3137537I107234J32373D01*
G01X-48514Y2763295D01*
G01X-64395Y2747414D01*
G01X-171600Y2747414D01*
G03X-207414Y2711600I0J-35814D01*
G01X-207414Y2604395D01*
G01X-251106Y2560703D01*
G03X-265316Y2526398I34305J-34305D01*
G01X-265316Y2363315D01*
G01X-286802Y2363315D01*
G03X-322616Y2327501I0J-35814D01*
G01X-322616Y2187501D01*
G03X-286802Y2151687I35814J0D01*
G01X-146802Y2151687D01*
G03X-110988Y2187501I0J35814D01*
G01X-110988Y2327501D01*
G03X-146802Y2363315I-35814J0D01*
G01X-168288Y2363315D01*
G01X-168288Y2506303D01*
G01X-138805Y2535786D01*
G01X-31600Y2535786D01*
G03X4214Y2571600I0J35814D01*
G01X4214Y2678805D01*
G01X34305Y2708895D01*
G03X48514Y2743200I-34305J34305D01*
G01X48514Y3137537D01*
G03X82838Y3313899I-48514J100963D01*
G03X-95966Y3296273I-82838J-75399D01*
G03X-167447Y3370055I-107234J-32373D01*
G03X-269000Y3354551I-35753J-106155D01*
G03X-423883Y3456280I-112000J-1751D01*
G03X-451648Y3556376I-109517J23520D01*
G03X-549717Y3590619I-81752J-76576D01*
G03X-558010Y3712004I-97983J54281D01*
G03X-672119Y3754220I-89690J-67104D01*
G03X-709005Y3939915I-77181J81180D01*
G03X-650094Y4033676I-52995J98685D01*
G03X-700542Y4132248I-111906J4924D01*
G03X-619322Y4201667I-23358J109552D01*
G03X-633249Y4307600I-104578J40133D01*
G03X-533344Y4466644I-1751J112000D01*
G03X-426363Y4483712I38044J105356D01*
G03X-383864Y4583361I-68937J88288D01*
G03X-221484Y4615911I66364J90239D01*
G03X-268986Y4774563I-96016J57689D01*
G01X-268986Y5088486D01*
G01X-171300Y5088486D01*
G03X-135486Y5124300I0J35814D01*
G01X-135486Y5264300D01*
G03X-171300Y5300114I-35814J0D01*
G01X-278505Y5300114D01*
G01X-497586Y5519195D01*
G01X-497586Y5520286D01*
G01X-476100Y5520286D01*
G03X-440286Y5556100I0J35814D01*
G01X-440286Y5696100D01*
G03X-476100Y5731914I-35814J0D01*
G01X-616100Y5731914D01*
G03X-651914Y5696100I0J-35814D01*
G01X-651914Y5556100D01*
G03X-616100Y5520286I35814J0D01*
G01X-594614Y5520286D01*
G01X-594614Y5499100D01*
G03X-580405Y5464795I48514J0D01*
G01X-347114Y5231505D01*
G01X-347114Y5157095D01*
G01X-351805Y5152405D01*
G03X-366014Y5118100I34305J-34305D01*
G01X-366014Y4774563D01*
G03X-428936Y4662239I48514J-100963D01*
G03X-446786Y4672963I-66364J-90239D01*
G01X-446786Y5004996D01*
G01X-434901Y5004996D01*
G03X-399087Y5040810I0J35814D01*
G01X-399087Y5180810D01*
G03X-434901Y5216624I-35814J0D01*
G01X-542106Y5216624D01*
G01X-782686Y5457205D01*
G01X-783186Y5457697D01*
G01X-783186Y5492900D01*
G03X-819000Y5528714I-35814J0D01*
G01X-959000Y5528714D01*
G03X-994814Y5492900I0J-35814D01*
G01X-994814Y5352900D01*
G03X-959000Y5317086I35814J0D01*
G01X-819000Y5317086D01*
G03X-792033Y5329333I0J35814D01*
G01X-610715Y5148015D01*
G01X-610715Y5040810D01*
G03X-574901Y5004996I35814J0D01*
G01X-543814Y5004996D01*
G01X-543814Y4672963D01*
G03X-586486Y4637056I48514J-100963D01*
G01X-586486Y4749800D01*
G03X-600695Y4784105I-48514J0D01*
G01X-694286Y4877695D01*
G01X-694286Y4984900D01*
G03X-730100Y5020714I-35814J0D01*
G01X-837305Y5020714D01*
G01X-1038604Y5222013D01*
G03X-1072909Y5236223I-34305J-34305D01*
G01X-1126988Y5236223D01*
G01X-1126988Y5257709D01*
G03X-1162802Y5293523I-35814J0D01*
G01X-1302802Y5293523D01*
G03X-1338616Y5257709I0J-35814D01*
G01X-1338616Y5117709D01*
G03X-1302802Y5081895I35814J0D01*
G01X-1162802Y5081895D01*
G03X-1126988Y5117709I0J35814D01*
G01X-1126988Y5139195D01*
G01X-1093004Y5139195D01*
G01X-905914Y4952105D01*
G01X-905914Y4844900D01*
G03X-870100Y4809086I35814J0D01*
G01X-762895Y4809086D01*
G01X-683514Y4729705D01*
G01X-683514Y4520563D01*
G03X-725651Y4353800I48514J-100963D01*
G03X-760987Y4347496I1751J-112000D01*
G01X-943177Y4529686D01*
G01X-933300Y4529686D01*
G03X-897486Y4565500I0J35814D01*
G01X-897486Y4705500D01*
G03X-933300Y4741314I-35814J0D01*
G01X-1040505Y4741314D01*
G01X-1119503Y4820312D01*
G03X-1153808Y4834522I-34305J-34305D01*
G01X-1469888Y4834522D01*
G01X-1469888Y4856008D01*
G03X-1505702Y4891822I-35814J0D01*
G01X-1645702Y4891822D01*
G03X-1681516Y4856008I0J-35814D01*
G01X-1681516Y4716008D01*
G03X-1645702Y4680194I35814J0D01*
G01X-1505702Y4680194D01*
G03X-1469888Y4716008I0J35814D01*
G01X-1469888Y4737494D01*
G01X-1173903Y4737494D01*
G01X-1109114Y4672705D01*
G01X-1109114Y4565500D01*
G03X-1073300Y4529686I35814J0D01*
G01X-1051814Y4529686D01*
G01X-1051814Y4521200D01*
G03X-1037605Y4486895I48514J0D01*
G01X-829596Y4278887D01*
G03X-785358Y4148152I105696J-37087D01*
G03X-862963Y4087114I23358J-109552D01*
G01X-907005Y4087114D01*
G01X-1126086Y4306195D01*
G01X-1126086Y4413400D01*
G03X-1161900Y4449214I-35814J0D01*
G01X-1301900Y4449214D01*
G03X-1337714Y4413400I0J-35814D01*
G01X-1337714Y4318521D01*
G01X-1634988Y4318521D01*
G01X-1634988Y4340007D01*
G03X-1670802Y4375821I-35814J0D01*
G01X-1810802Y4375821D01*
G03X-1846616Y4340007I0J-35814D01*
G01X-1846616Y4200007D01*
G03X-1810802Y4164193I35814J0D01*
G01X-1670802Y4164193D01*
G03X-1634988Y4200007I0J35814D01*
G01X-1634988Y4221493D01*
G01X-1305293Y4221493D01*
G03X-1270989Y4235702I0J48514D01*
G01X-1269105Y4237586D01*
G01X-1194695Y4237586D01*
G01X-961405Y4004295D01*
G03X-927100Y3990086I34305J34305D01*
G01X-862963Y3990086D01*
G03X-802295Y3934085I100963J48514D01*
G03X-724881Y3726080I52995J-98685D01*
G37*
G36*
G01X-1136500Y3869286D02*
G03X-1100686Y3905100I0J35814D01*
G01X-1100686Y4045100D01*
G03X-1136500Y4080914I-35814J0D01*
G01X-1276500Y4080914D01*
G03X-1312314Y4045100I0J-35814D01*
G01X-1312314Y3905100D01*
G03X-1276500Y3869286I35814J0D01*
G01X-1136500Y3869286D01*
G37*
G36*
G01X633868Y3730657D02*
G03X544220Y3576617I13832J-111157D01*
G03X441494Y3546306I-23520J-109517D01*
G03X411183Y3443580I79206J-79206D01*
G03X266040Y3385816I-42883J-103480D01*
G03X319786Y3239137I102260J-45716D01*
G01X319786Y3079106D01*
G01X213405Y2972725D01*
G01X106200Y2972725D01*
G03X70386Y2936911I0J-35814D01*
G01X70386Y2796911D01*
G03X106200Y2761097I35814J0D01*
G01X213405Y2761097D01*
G01X466585Y2507916D01*
G01X466585Y2388525D01*
G01X445099Y2388525D01*
G03X409285Y2352711I0J-35814D01*
G01X409285Y2212711D01*
G03X445099Y2176897I35814J0D01*
G01X585099Y2176897D01*
G03X620913Y2212711I0J35814D01*
G01X620913Y2352711D01*
G03X585099Y2388525I-35814J0D01*
G01X563613Y2388525D01*
G01X563613Y2528011D01*
G03X549404Y2562316I-48514J0D01*
G01X282014Y2829706D01*
G01X282014Y2904115D01*
G01X402605Y3024706D01*
G03X416814Y3059011I-34305J34305D01*
G01X416814Y3239137D01*
G03X472186Y3298209I-48514J100963D01*
G01X472186Y3006824D01*
G01X411000Y3006824D01*
G03X375186Y2971010I0J-35814D01*
G01X375186Y2831010D01*
G03X411000Y2795196I35814J0D01*
G01X518205Y2795196D01*
G01X800026Y2513375D01*
G03X783186Y2483000I18974J-30375D01*
G01X783186Y2343000D01*
G03X819000Y2307186I35814J0D01*
G01X959000Y2307186D01*
G03X994814Y2343000I0J35814D01*
G01X994814Y2483000D01*
G03X959000Y2518814I-35814J0D01*
G01X930082Y2518814D01*
G03X923305Y2527315I-41082J-25804D01*
G01X586814Y2863805D01*
G01X586814Y2971010D01*
G03X569214Y3001846I-35814J0D01*
G01X569214Y3366137D01*
G03X599186Y3387181I-48514J100963D01*
G01X599186Y3120009D01*
G03X613395Y3085704I48514J0D01*
G01X629186Y3069914D01*
G01X629186Y2962709D01*
G03X665000Y2926895I35814J0D01*
G01X772205Y2926895D01*
G01X990204Y2708895D01*
G03X1024509Y2694686I34305J34305D01*
G01X1049886Y2694686D01*
G01X1049886Y2673200D01*
G03X1085700Y2637386I35814J0D01*
G01X1225700Y2637386D01*
G03X1261514Y2673200I0J35814D01*
G01X1261514Y2813200D01*
G03X1225700Y2849014I-35814J0D01*
G01X1085700Y2849014D01*
G03X1049886Y2813200I0J-35814D01*
G01X1049886Y2791714D01*
G01X1044604Y2791714D01*
G01X840814Y2995504D01*
G01X840814Y3102709D01*
G03X805000Y3138523I-35814J0D01*
G01X697795Y3138523D01*
G01X696214Y3140104D01*
G01X696214Y3518537D01*
G03X737732Y3686143I-48514J100963D01*
G03X760987Y3691604I-13832J111157D01*
G01X940486Y3512105D01*
G01X940486Y3321022D01*
G01X919000Y3321022D01*
G03X883186Y3285208I0J-35814D01*
G01X883186Y3145208D01*
G03X919000Y3109394I35814J0D01*
G01X1026205Y3109394D01*
G01X1111096Y3024503D01*
G03X1145400Y3010294I34305J34305D01*
G01X1323685Y3010294D01*
G01X1323685Y2988808D01*
G03X1359499Y2952994I35814J0D01*
G01X1499499Y2952994D01*
G03X1535313Y2988808I0J35814D01*
G01X1535313Y3128808D01*
G03X1499499Y3164622I-35814J0D01*
G01X1359499Y3164622D01*
G03X1323685Y3128808I0J-35814D01*
G01X1323685Y3107322D01*
G01X1165495Y3107322D01*
G01X1094814Y3178003D01*
G01X1094814Y3285208D01*
G03X1059000Y3321022I-35814J0D01*
G01X1037514Y3321022D01*
G01X1037514Y3483770D01*
G03X1060300Y3475586I22786J27630D01*
G01X1200300Y3475586D01*
G03X1236114Y3511400I0J35814D01*
G01X1236114Y3545586D01*
G01X1481686Y3545586D01*
G01X1481686Y3524100D01*
G03X1517500Y3488286I35814J0D01*
G01X1657500Y3488286D01*
G03X1693314Y3524100I0J35814D01*
G01X1693314Y3664100D01*
G03X1657500Y3699914I-35814J0D01*
G01X1517500Y3699914D01*
G03X1481686Y3664100I0J-35814D01*
G01X1481686Y3642614D01*
G01X1236114Y3642614D01*
G01X1236114Y3651400D01*
G03X1200300Y3687214I-35814J0D01*
G01X1105795Y3687214D01*
G01X842296Y3950713D01*
G03X848134Y3998157I-105696J37087D01*
G01X944789Y3901502D01*
G03X979094Y3887292I34305J34305D01*
G01X984786Y3887292D01*
G01X984786Y3865806D01*
G03X1020600Y3829992I35814J0D01*
G01X1160600Y3829992D01*
G03X1196414Y3865806I0J35814D01*
G01X1196414Y3973011D01*
G01X1208294Y3984892D01*
G01X1539585Y3984892D01*
G01X1539585Y3963406D01*
G03X1575399Y3927592I35814J0D01*
G01X1715399Y3927592D01*
G03X1751213Y3963406I0J35814D01*
G01X1751213Y4103406D01*
G03X1715399Y4139220I-35814J0D01*
G01X1575399Y4139220D01*
G03X1539585Y4103406I0J-35814D01*
G01X1539585Y4081920D01*
G01X1188199Y4081920D01*
G03X1153895Y4067710I0J-48514D01*
G01X1127805Y4041620D01*
G01X1020600Y4041620D01*
G03X984786Y4005806I0J-35814D01*
G01X984786Y3998723D01*
G01X829596Y4153913D01*
G03X748935Y4300180I-105696J37087D01*
G03X761363Y4320286I-88535J68620D01*
G01X984786Y4320286D01*
G01X984786Y4251505D01*
G03X1020600Y4215691I35814J0D01*
G01X1160600Y4215691D01*
G03X1196414Y4251505I0J35814D01*
G01X1196414Y4358710D01*
G01X1436894Y4599191D01*
G01X1501485Y4599191D01*
G01X1501485Y4577705D01*
G03X1537299Y4541891I35814J0D01*
G01X1677299Y4541891D01*
G03X1713113Y4577705I0J35814D01*
G01X1713113Y4717705D01*
G03X1677299Y4753519I-35814J0D01*
G01X1537299Y4753519D01*
G03X1501485Y4717705I0J-35814D01*
G01X1501485Y4696219D01*
G01X1416799Y4696219D01*
G03X1382495Y4682009I0J-48514D01*
G01X1127805Y4427319D01*
G01X1020600Y4427319D01*
G03X995770Y4417314I0J-35814D01*
G01X761363Y4417314D01*
G03X702291Y4472686I-100963J-48514D01*
G01X777596Y4472686D01*
G03X811900Y4486895I0J48514D01*
G01X900995Y4575990D01*
G01X1008200Y4575990D01*
G03X1044014Y4611804I0J35814D01*
G01X1044014Y4719009D01*
G01X1336804Y5011799D01*
G03X1340926Y5016490I-34305J34305D01*
G01X1372499Y5016490D01*
G03X1408313Y5052304I0J35814D01*
G01X1408313Y5192304D01*
G03X1372499Y5228118I-35814J0D01*
G01X1232499Y5228118D01*
G03X1196685Y5192304I0J-35814D01*
G01X1196685Y5052304D01*
G03X1211257Y5023470I35814J0D01*
G01X975405Y4787618D01*
G01X868200Y4787618D01*
G03X832386Y4751804I0J-35814D01*
G01X832386Y4644599D01*
G01X757500Y4569714D01*
G01X647063Y4569714D01*
G03X504999Y4625401I-100963J-48514D01*
G03X499396Y4675127I-111299J12639D01*
G01X671658Y4847389D01*
G01X728800Y4847389D01*
G03X764614Y4883203I0J35814D01*
G01X764614Y4990408D01*
G01X981204Y5206998D01*
G03X995413Y5241303I-34305J34305D01*
G01X995413Y5300589D01*
G01X1016899Y5300589D01*
G03X1052713Y5336403I0J35814D01*
G01X1052713Y5476403D01*
G03X1016899Y5512217I-35814J0D01*
G01X876899Y5512217D01*
G03X841085Y5476403I0J-35814D01*
G01X841085Y5336403D01*
G03X876899Y5300589I35814J0D01*
G01X898385Y5300589D01*
G01X898385Y5261398D01*
G01X696005Y5059017D01*
G01X588800Y5059017D01*
G03X552986Y5023203I0J-35814D01*
G01X552986Y4883203D01*
G03X555962Y4868911I35814J0D01*
G01X430787Y4743736D01*
G03X311164Y4713770I-37087J-105696D01*
G03X305696Y4737087I-111164J-13770D01*
G01X375604Y4806995D01*
G03X389814Y4841300I-34305J34305D01*
G01X389814Y5029888D01*
G01X411300Y5029888D01*
G03X447114Y5065702I0J35814D01*
G01X447114Y5172907D01*
G01X511304Y5237097D01*
G03X525513Y5271402I-34305J34305D01*
G01X525513Y5470388D01*
G01X546999Y5470388D01*
G03X582813Y5506202I0J35814D01*
G01X582813Y5646202D01*
G03X546999Y5682016I-35814J0D01*
G01X406999Y5682016D01*
G03X371185Y5646202I0J-35814D01*
G01X371185Y5506202D01*
G03X406999Y5470388I35814J0D01*
G01X428485Y5470388D01*
G01X428485Y5291497D01*
G01X378505Y5241516D01*
G01X271300Y5241516D01*
G03X235486Y5205702I0J-35814D01*
G01X235486Y5065702D01*
G03X271300Y5029888I35814J0D01*
G01X292786Y5029888D01*
G01X292786Y4861395D01*
G01X237087Y4805696D01*
G03X105931Y4760812I-37087J-105696D01*
G03X47830Y4825689I-105931J-36412D01*
G01X47830Y5094186D01*
G01X70000Y5094186D01*
G03X105814Y5130000I0J35814D01*
G01X105814Y5270000D01*
G03X70000Y5305814I-35814J0D01*
G01X48514Y5305814D01*
G01X48514Y5494186D01*
G01X70000Y5494186D01*
G03X105814Y5530000I0J35814D01*
G01X105814Y5670000D01*
G03X70000Y5705814I-35814J0D01*
G01X-70000Y5705814D01*
G03X-105814Y5670000I0J-35814D01*
G01X-105814Y5530000D01*
G03X-70000Y5494186I35814J0D01*
G01X-48514Y5494186D01*
G01X-48514Y5305814D01*
G01X-70000Y5305814D01*
G03X-105814Y5270000I0J-35814D01*
G01X-105814Y5130000D01*
G03X-70000Y5094186I35814J0D01*
G01X-49198Y5094186D01*
G01X-49198Y4825032D01*
G03X-83782Y4650051I49198J-100632D01*
G03X94069Y4663588I83782J74349D01*
G03X282536Y4624270I105931J36412D01*
G03X336502Y4541731I111164J13770D01*
G03X434801Y4533839I57198J96309D01*
G03X556094Y4409633I111299J-12639D01*
G03X635365Y4259620I104306J-40833D01*
G03X683605Y4086485I88535J-68620D01*
G03X671777Y3896448I52995J-98685D01*
G03X633868Y3730657I52123J-99148D01*
G37*
%LPD*%
G54D10*
G01X1964186Y3999992D02*
G02X-1964186Y3999992I-1964186J0D01*
G02X1964186Y3999992I1964186J0D01*
G01X-1720700Y3666086D02*
G03X-1684886Y3701900I0J35814D01*
G01X-1684886Y3841900D01*
G03X-1720700Y3877714I-35814J0D01*
G01X-1860700Y3877714D01*
G03X-1896514Y3841900I0J-35814D01*
G01X-1896514Y3701900D01*
G03X-1860700Y3666086I35814J0D01*
G01X-1720700Y3666086D01*
G01X-724881Y3726080D02*
G03X-757073Y3620719I77181J-81180D01*
G01X-1046787Y3620719D01*
G01X-1046787Y3642205D01*
G03X-1082601Y3678019I-35814J0D01*
G01X-1222601Y3678019D01*
G03X-1258415Y3642205I0J-35814D01*
G01X-1258415Y3535000D01*
G01X-1507086Y3286329D01*
G01X-1507086Y3295800D01*
G03X-1542900Y3331614I-35814J0D01*
G01X-1682900Y3331614D01*
G03X-1718714Y3295800I0J-35814D01*
G01X-1718714Y3155800D01*
G03X-1682900Y3119986I35814J0D01*
G01X-1542900Y3119986D01*
G03X-1507086Y3155800I0J35814D01*
G01X-1507086Y3177286D01*
G01X-1499006Y3177286D01*
G03X-1464702Y3191495I0J48514D01*
G01X-1189806Y3466391D01*
G01X-1082601Y3466391D01*
G03X-1046787Y3502205I0J35814D01*
G01X-1046787Y3523691D01*
G01X-720395Y3523691D01*
G03X-686090Y3537901I0J48514D01*
G01X-684787Y3539204D01*
G03X-631383Y3534081I37087J105696D01*
G03X-639096Y3442713I97983J-54281D01*
G01X-811991Y3269818D01*
G01X-818187Y3269818D01*
G01X-818187Y3291304D01*
G03X-854001Y3327118I-35814J0D01*
G01X-994001Y3327118D01*
G03X-1029815Y3291304I0J-35814D01*
G01X-1029815Y3184099D01*
G01X-1249599Y2964315D01*
G03X-1264402Y2967518I-14803J-32612D01*
G01X-1404402Y2967518D01*
G03X-1440216Y2931704I0J-35814D01*
G01X-1440216Y2791704D01*
G03X-1404402Y2755890I35814J0D01*
G01X-1264402Y2755890D01*
G03X-1228588Y2791704I0J35814D01*
G01X-1228588Y2848108D01*
G01X-961206Y3115490D01*
G01X-854001Y3115490D01*
G03X-818187Y3151304I0J35814D01*
G01X-818187Y3172790D01*
G01X-791896Y3172790D01*
G03X-757591Y3187000I0J48514D01*
G01X-570487Y3374104D01*
G03X-490517Y3376320I37087J105696D01*
G03X-429514Y3251837I109517J-23520D01*
G01X-429514Y3233195D01*
G01X-635895Y3026814D01*
G01X-743100Y3026814D01*
G03X-778914Y2991000I0J-35814D01*
G01X-778914Y2883795D01*
G01X-969893Y2692817D01*
G01X-1074202Y2692817D01*
G03X-1110016Y2657003I0J-35814D01*
G01X-1110016Y2517003D01*
G03X-1074202Y2481189I35814J0D01*
G01X-934202Y2481189D01*
G03X-898388Y2517003I0J35814D01*
G01X-898388Y2627103D01*
G01X-710305Y2815186D01*
G01X-603100Y2815186D01*
G03X-567286Y2851000I0J35814D01*
G01X-567286Y2958205D01*
G01X-346695Y3178795D01*
G03X-332486Y3213100I-34305J34305D01*
G01X-332486Y3251837D01*
G03X-315200Y3262149I-48514J100963D01*
G03X-251714Y3162937I112000J1751D01*
G01X-251714Y3019099D01*
G01X-340696Y2930116D01*
G01X-447901Y2930116D01*
G03X-483715Y2894302I0J-35814D01*
G01X-483715Y2787097D01*
G01X-670206Y2600606D01*
G03X-684416Y2566302I34305J-34305D01*
G01X-684416Y2430816D01*
G01X-705902Y2430816D01*
G03X-741716Y2395002I0J-35814D01*
G01X-741716Y2255002D01*
G03X-705902Y2219188I35814J0D01*
G01X-565902Y2219188D01*
G03X-530088Y2255002I0J35814D01*
G01X-530088Y2395002D01*
G03X-565902Y2430816I-35814J0D01*
G01X-587388Y2430816D01*
G01X-587388Y2546207D01*
G01X-415106Y2718488D01*
G01X-307901Y2718488D01*
G03X-272087Y2754302I0J35814D01*
G01X-272087Y2861507D01*
G01X-168895Y2964699D01*
G03X-154686Y2999003I-34305J34305D01*
G01X-154686Y3162937D01*
G03X-107234Y3206127I-48514J100963D01*
G03X-48514Y3137537I107234J32373D01*
G01X-48514Y2763295D01*
G01X-64395Y2747414D01*
G01X-171600Y2747414D01*
G03X-207414Y2711600I0J-35814D01*
G01X-207414Y2604395D01*
G01X-251106Y2560703D01*
G03X-265316Y2526398I34305J-34305D01*
G01X-265316Y2363315D01*
G01X-286802Y2363315D01*
G03X-322616Y2327501I0J-35814D01*
G01X-322616Y2187501D01*
G03X-286802Y2151687I35814J0D01*
G01X-146802Y2151687D01*
G03X-110988Y2187501I0J35814D01*
G01X-110988Y2327501D01*
G03X-146802Y2363315I-35814J0D01*
G01X-168288Y2363315D01*
G01X-168288Y2506303D01*
G01X-138805Y2535786D01*
G01X-31600Y2535786D01*
G03X4214Y2571600I0J35814D01*
G01X4214Y2678805D01*
G01X34305Y2708895D01*
G03X48514Y2743200I-34305J34305D01*
G01X48514Y3137537D01*
G03X82838Y3313899I-48514J100963D01*
G03X-95966Y3296273I-82838J-75399D01*
G03X-167447Y3370055I-107234J-32373D01*
G03X-269000Y3354551I-35753J-106155D01*
G03X-423883Y3456280I-112000J-1751D01*
G03X-451648Y3556376I-109517J23520D01*
G03X-549717Y3590619I-81752J-76576D01*
G03X-558010Y3712004I-97983J54281D01*
G03X-672119Y3754220I-89690J-67104D01*
G03X-709005Y3939915I-77181J81180D01*
G03X-650094Y4033676I-52995J98685D01*
G03X-700542Y4132248I-111906J4924D01*
G03X-619322Y4201667I-23358J109552D01*
G03X-633249Y4307600I-104578J40133D01*
G03X-533344Y4466644I-1751J112000D01*
G03X-426363Y4483712I38044J105356D01*
G03X-383864Y4583361I-68937J88288D01*
G03X-221484Y4615911I66364J90239D01*
G03X-268986Y4774563I-96016J57689D01*
G01X-268986Y5088486D01*
G01X-171300Y5088486D01*
G03X-135486Y5124300I0J35814D01*
G01X-135486Y5264300D01*
G03X-171300Y5300114I-35814J0D01*
G01X-278505Y5300114D01*
G01X-497586Y5519195D01*
G01X-497586Y5520286D01*
G01X-476100Y5520286D01*
G03X-440286Y5556100I0J35814D01*
G01X-440286Y5696100D01*
G03X-476100Y5731914I-35814J0D01*
G01X-616100Y5731914D01*
G03X-651914Y5696100I0J-35814D01*
G01X-651914Y5556100D01*
G03X-616100Y5520286I35814J0D01*
G01X-594614Y5520286D01*
G01X-594614Y5499100D01*
G03X-580405Y5464795I48514J0D01*
G01X-347114Y5231505D01*
G01X-347114Y5157095D01*
G01X-351805Y5152405D01*
G03X-366014Y5118100I34305J-34305D01*
G01X-366014Y4774563D01*
G03X-428936Y4662239I48514J-100963D01*
G03X-446786Y4672963I-66364J-90239D01*
G01X-446786Y5004996D01*
G01X-434901Y5004996D01*
G03X-399087Y5040810I0J35814D01*
G01X-399087Y5180810D01*
G03X-434901Y5216624I-35814J0D01*
G01X-542106Y5216624D01*
G01X-782686Y5457205D01*
G01X-783186Y5457697D01*
G01X-783186Y5492900D01*
G03X-819000Y5528714I-35814J0D01*
G01X-959000Y5528714D01*
G03X-994814Y5492900I0J-35814D01*
G01X-994814Y5352900D01*
G03X-959000Y5317086I35814J0D01*
G01X-819000Y5317086D01*
G03X-792033Y5329333I0J35814D01*
G01X-610715Y5148015D01*
G01X-610715Y5040810D01*
G03X-574901Y5004996I35814J0D01*
G01X-543814Y5004996D01*
G01X-543814Y4672963D01*
G03X-586486Y4637056I48514J-100963D01*
G01X-586486Y4749800D01*
G03X-600695Y4784105I-48514J0D01*
G01X-694286Y4877695D01*
G01X-694286Y4984900D01*
G03X-730100Y5020714I-35814J0D01*
G01X-837305Y5020714D01*
G01X-1038604Y5222013D01*
G03X-1072909Y5236223I-34305J-34305D01*
G01X-1126988Y5236223D01*
G01X-1126988Y5257709D01*
G03X-1162802Y5293523I-35814J0D01*
G01X-1302802Y5293523D01*
G03X-1338616Y5257709I0J-35814D01*
G01X-1338616Y5117709D01*
G03X-1302802Y5081895I35814J0D01*
G01X-1162802Y5081895D01*
G03X-1126988Y5117709I0J35814D01*
G01X-1126988Y5139195D01*
G01X-1093004Y5139195D01*
G01X-905914Y4952105D01*
G01X-905914Y4844900D01*
G03X-870100Y4809086I35814J0D01*
G01X-762895Y4809086D01*
G01X-683514Y4729705D01*
G01X-683514Y4520563D01*
G03X-725651Y4353800I48514J-100963D01*
G03X-760987Y4347496I1751J-112000D01*
G01X-943177Y4529686D01*
G01X-933300Y4529686D01*
G03X-897486Y4565500I0J35814D01*
G01X-897486Y4705500D01*
G03X-933300Y4741314I-35814J0D01*
G01X-1040505Y4741314D01*
G01X-1119503Y4820312D01*
G03X-1153808Y4834522I-34305J-34305D01*
G01X-1469888Y4834522D01*
G01X-1469888Y4856008D01*
G03X-1505702Y4891822I-35814J0D01*
G01X-1645702Y4891822D01*
G03X-1681516Y4856008I0J-35814D01*
G01X-1681516Y4716008D01*
G03X-1645702Y4680194I35814J0D01*
G01X-1505702Y4680194D01*
G03X-1469888Y4716008I0J35814D01*
G01X-1469888Y4737494D01*
G01X-1173903Y4737494D01*
G01X-1109114Y4672705D01*
G01X-1109114Y4565500D01*
G03X-1073300Y4529686I35814J0D01*
G01X-1051814Y4529686D01*
G01X-1051814Y4521200D01*
G03X-1037605Y4486895I48514J0D01*
G01X-829596Y4278887D01*
G03X-785358Y4148152I105696J-37087D01*
G03X-862963Y4087114I23358J-109552D01*
G01X-907005Y4087114D01*
G01X-1126086Y4306195D01*
G01X-1126086Y4413400D01*
G03X-1161900Y4449214I-35814J0D01*
G01X-1301900Y4449214D01*
G03X-1337714Y4413400I0J-35814D01*
G01X-1337714Y4318521D01*
G01X-1634988Y4318521D01*
G01X-1634988Y4340007D01*
G03X-1670802Y4375821I-35814J0D01*
G01X-1810802Y4375821D01*
G03X-1846616Y4340007I0J-35814D01*
G01X-1846616Y4200007D01*
G03X-1810802Y4164193I35814J0D01*
G01X-1670802Y4164193D01*
G03X-1634988Y4200007I0J35814D01*
G01X-1634988Y4221493D01*
G01X-1305293Y4221493D01*
G03X-1270989Y4235702I0J48514D01*
G01X-1269105Y4237586D01*
G01X-1194695Y4237586D01*
G01X-961405Y4004295D01*
G03X-927100Y3990086I34305J34305D01*
G01X-862963Y3990086D01*
G03X-802295Y3934085I100963J48514D01*
G03X-724881Y3726080I52995J-98685D01*
G01X-1136500Y3869286D02*
G03X-1100686Y3905100I0J35814D01*
G01X-1100686Y4045100D01*
G03X-1136500Y4080914I-35814J0D01*
G01X-1276500Y4080914D01*
G03X-1312314Y4045100I0J-35814D01*
G01X-1312314Y3905100D01*
G03X-1276500Y3869286I35814J0D01*
G01X-1136500Y3869286D01*
G01X633868Y3730657D02*
G03X544220Y3576617I13832J-111157D01*
G03X441494Y3546306I-23520J-109517D01*
G03X411183Y3443580I79206J-79206D01*
G03X266040Y3385816I-42883J-103480D01*
G03X319786Y3239137I102260J-45716D01*
G01X319786Y3079106D01*
G01X213405Y2972725D01*
G01X106200Y2972725D01*
G03X70386Y2936911I0J-35814D01*
G01X70386Y2796911D01*
G03X106200Y2761097I35814J0D01*
G01X213405Y2761097D01*
G01X466585Y2507916D01*
G01X466585Y2388525D01*
G01X445099Y2388525D01*
G03X409285Y2352711I0J-35814D01*
G01X409285Y2212711D01*
G03X445099Y2176897I35814J0D01*
G01X585099Y2176897D01*
G03X620913Y2212711I0J35814D01*
G01X620913Y2352711D01*
G03X585099Y2388525I-35814J0D01*
G01X563613Y2388525D01*
G01X563613Y2528011D01*
G03X549404Y2562316I-48514J0D01*
G01X282014Y2829706D01*
G01X282014Y2904115D01*
G01X402605Y3024706D01*
G03X416814Y3059011I-34305J34305D01*
G01X416814Y3239137D01*
G03X472186Y3298209I-48514J100963D01*
G01X472186Y3006824D01*
G01X411000Y3006824D01*
G03X375186Y2971010I0J-35814D01*
G01X375186Y2831010D01*
G03X411000Y2795196I35814J0D01*
G01X518205Y2795196D01*
G01X800026Y2513375D01*
G03X783186Y2483000I18974J-30375D01*
G01X783186Y2343000D01*
G03X819000Y2307186I35814J0D01*
G01X959000Y2307186D01*
G03X994814Y2343000I0J35814D01*
G01X994814Y2483000D01*
G03X959000Y2518814I-35814J0D01*
G01X930082Y2518814D01*
G03X923305Y2527315I-41082J-25804D01*
G01X586814Y2863805D01*
G01X586814Y2971010D01*
G03X569214Y3001846I-35814J0D01*
G01X569214Y3366137D01*
G03X599186Y3387181I-48514J100963D01*
G01X599186Y3120009D01*
G03X613395Y3085704I48514J0D01*
G01X629186Y3069914D01*
G01X629186Y2962709D01*
G03X665000Y2926895I35814J0D01*
G01X772205Y2926895D01*
G01X990204Y2708895D01*
G03X1024509Y2694686I34305J34305D01*
G01X1049886Y2694686D01*
G01X1049886Y2673200D01*
G03X1085700Y2637386I35814J0D01*
G01X1225700Y2637386D01*
G03X1261514Y2673200I0J35814D01*
G01X1261514Y2813200D01*
G03X1225700Y2849014I-35814J0D01*
G01X1085700Y2849014D01*
G03X1049886Y2813200I0J-35814D01*
G01X1049886Y2791714D01*
G01X1044604Y2791714D01*
G01X840814Y2995504D01*
G01X840814Y3102709D01*
G03X805000Y3138523I-35814J0D01*
G01X697795Y3138523D01*
G01X696214Y3140104D01*
G01X696214Y3518537D01*
G03X737732Y3686143I-48514J100963D01*
G03X760987Y3691604I-13832J111157D01*
G01X940486Y3512105D01*
G01X940486Y3321022D01*
G01X919000Y3321022D01*
G03X883186Y3285208I0J-35814D01*
G01X883186Y3145208D01*
G03X919000Y3109394I35814J0D01*
G01X1026205Y3109394D01*
G01X1111096Y3024503D01*
G03X1145400Y3010294I34305J34305D01*
G01X1323685Y3010294D01*
G01X1323685Y2988808D01*
G03X1359499Y2952994I35814J0D01*
G01X1499499Y2952994D01*
G03X1535313Y2988808I0J35814D01*
G01X1535313Y3128808D01*
G03X1499499Y3164622I-35814J0D01*
G01X1359499Y3164622D01*
G03X1323685Y3128808I0J-35814D01*
G01X1323685Y3107322D01*
G01X1165495Y3107322D01*
G01X1094814Y3178003D01*
G01X1094814Y3285208D01*
G03X1059000Y3321022I-35814J0D01*
G01X1037514Y3321022D01*
G01X1037514Y3483770D01*
G03X1060300Y3475586I22786J27630D01*
G01X1200300Y3475586D01*
G03X1236114Y3511400I0J35814D01*
G01X1236114Y3545586D01*
G01X1481686Y3545586D01*
G01X1481686Y3524100D01*
G03X1517500Y3488286I35814J0D01*
G01X1657500Y3488286D01*
G03X1693314Y3524100I0J35814D01*
G01X1693314Y3664100D01*
G03X1657500Y3699914I-35814J0D01*
G01X1517500Y3699914D01*
G03X1481686Y3664100I0J-35814D01*
G01X1481686Y3642614D01*
G01X1236114Y3642614D01*
G01X1236114Y3651400D01*
G03X1200300Y3687214I-35814J0D01*
G01X1105795Y3687214D01*
G01X842296Y3950713D01*
G03X848134Y3998157I-105696J37087D01*
G01X944789Y3901502D01*
G03X979094Y3887292I34305J34305D01*
G01X984786Y3887292D01*
G01X984786Y3865806D01*
G03X1020600Y3829992I35814J0D01*
G01X1160600Y3829992D01*
G03X1196414Y3865806I0J35814D01*
G01X1196414Y3973011D01*
G01X1208294Y3984892D01*
G01X1539585Y3984892D01*
G01X1539585Y3963406D01*
G03X1575399Y3927592I35814J0D01*
G01X1715399Y3927592D01*
G03X1751213Y3963406I0J35814D01*
G01X1751213Y4103406D01*
G03X1715399Y4139220I-35814J0D01*
G01X1575399Y4139220D01*
G03X1539585Y4103406I0J-35814D01*
G01X1539585Y4081920D01*
G01X1188199Y4081920D01*
G03X1153895Y4067710I0J-48514D01*
G01X1127805Y4041620D01*
G01X1020600Y4041620D01*
G03X984786Y4005806I0J-35814D01*
G01X984786Y3998723D01*
G01X829596Y4153913D01*
G03X748935Y4300180I-105696J37087D01*
G03X761363Y4320286I-88535J68620D01*
G01X984786Y4320286D01*
G01X984786Y4251505D01*
G03X1020600Y4215691I35814J0D01*
G01X1160600Y4215691D01*
G03X1196414Y4251505I0J35814D01*
G01X1196414Y4358710D01*
G01X1436894Y4599191D01*
G01X1501485Y4599191D01*
G01X1501485Y4577705D01*
G03X1537299Y4541891I35814J0D01*
G01X1677299Y4541891D01*
G03X1713113Y4577705I0J35814D01*
G01X1713113Y4717705D01*
G03X1677299Y4753519I-35814J0D01*
G01X1537299Y4753519D01*
G03X1501485Y4717705I0J-35814D01*
G01X1501485Y4696219D01*
G01X1416799Y4696219D01*
G03X1382495Y4682009I0J-48514D01*
G01X1127805Y4427319D01*
G01X1020600Y4427319D01*
G03X995770Y4417314I0J-35814D01*
G01X761363Y4417314D01*
G03X702291Y4472686I-100963J-48514D01*
G01X777596Y4472686D01*
G03X811900Y4486895I0J48514D01*
G01X900995Y4575990D01*
G01X1008200Y4575990D01*
G03X1044014Y4611804I0J35814D01*
G01X1044014Y4719009D01*
G01X1336804Y5011799D01*
G03X1340926Y5016490I-34305J34305D01*
G01X1372499Y5016490D01*
G03X1408313Y5052304I0J35814D01*
G01X1408313Y5192304D01*
G03X1372499Y5228118I-35814J0D01*
G01X1232499Y5228118D01*
G03X1196685Y5192304I0J-35814D01*
G01X1196685Y5052304D01*
G03X1211257Y5023470I35814J0D01*
G01X975405Y4787618D01*
G01X868200Y4787618D01*
G03X832386Y4751804I0J-35814D01*
G01X832386Y4644599D01*
G01X757500Y4569714D01*
G01X647063Y4569714D01*
G03X504999Y4625401I-100963J-48514D01*
G03X499396Y4675127I-111299J12639D01*
G01X671658Y4847389D01*
G01X728800Y4847389D01*
G03X764614Y4883203I0J35814D01*
G01X764614Y4990408D01*
G01X981204Y5206998D01*
G03X995413Y5241303I-34305J34305D01*
G01X995413Y5300589D01*
G01X1016899Y5300589D01*
G03X1052713Y5336403I0J35814D01*
G01X1052713Y5476403D01*
G03X1016899Y5512217I-35814J0D01*
G01X876899Y5512217D01*
G03X841085Y5476403I0J-35814D01*
G01X841085Y5336403D01*
G03X876899Y5300589I35814J0D01*
G01X898385Y5300589D01*
G01X898385Y5261398D01*
G01X696005Y5059017D01*
G01X588800Y5059017D01*
G03X552986Y5023203I0J-35814D01*
G01X552986Y4883203D01*
G03X555962Y4868911I35814J0D01*
G01X430787Y4743736D01*
G03X311164Y4713770I-37087J-105696D01*
G03X305696Y4737087I-111164J-13770D01*
G01X375604Y4806995D01*
G03X389814Y4841300I-34305J34305D01*
G01X389814Y5029888D01*
G01X411300Y5029888D01*
G03X447114Y5065702I0J35814D01*
G01X447114Y5172907D01*
G01X511304Y5237097D01*
G03X525513Y5271402I-34305J34305D01*
G01X525513Y5470388D01*
G01X546999Y5470388D01*
G03X582813Y5506202I0J35814D01*
G01X582813Y5646202D01*
G03X546999Y5682016I-35814J0D01*
G01X406999Y5682016D01*
G03X371185Y5646202I0J-35814D01*
G01X371185Y5506202D01*
G03X406999Y5470388I35814J0D01*
G01X428485Y5470388D01*
G01X428485Y5291497D01*
G01X378505Y5241516D01*
G01X271300Y5241516D01*
G03X235486Y5205702I0J-35814D01*
G01X235486Y5065702D01*
G03X271300Y5029888I35814J0D01*
G01X292786Y5029888D01*
G01X292786Y4861395D01*
G01X237087Y4805696D01*
G03X105931Y4760812I-37087J-105696D01*
G03X47830Y4825689I-105931J-36412D01*
G01X47830Y5094186D01*
G01X70000Y5094186D01*
G03X105814Y5130000I0J35814D01*
G01X105814Y5270000D01*
G03X70000Y5305814I-35814J0D01*
G01X48514Y5305814D01*
G01X48514Y5494186D01*
G01X70000Y5494186D01*
G03X105814Y5530000I0J35814D01*
G01X105814Y5670000D01*
G03X70000Y5705814I-35814J0D01*
G01X-70000Y5705814D01*
G03X-105814Y5670000I0J-35814D01*
G01X-105814Y5530000D01*
G03X-70000Y5494186I35814J0D01*
G01X-48514Y5494186D01*
G01X-48514Y5305814D01*
G01X-70000Y5305814D01*
G03X-105814Y5270000I0J-35814D01*
G01X-105814Y5130000D01*
G03X-70000Y5094186I35814J0D01*
G01X-49198Y5094186D01*
G01X-49198Y4825032D01*
G03X-83782Y4650051I49198J-100632D01*
G03X94069Y4663588I83782J74349D01*
G03X282536Y4624270I105931J36412D01*
G03X336502Y4541731I111164J13770D01*
G03X434801Y4533839I57198J96309D01*
G03X556094Y4409633I111299J-12639D01*
G03X635365Y4259620I104306J-40833D01*
G03X683605Y4086485I88535J-68620D01*
G03X671777Y3896448I52995J-98685D01*
G03X633868Y3730657I52123J-99148D01*
G54D11*
G01X-825246Y3835400D02*
G01X-851154Y3835400D01*
G01X-673354Y3835400D02*
G01X-647446Y3835400D01*
G01X-749300Y3759454D02*
G01X-749300Y3733546D01*
G01X-1860446Y3771900D02*
G01X-1886354Y3771900D01*
G01X-1720954Y3771900D02*
G01X-1695046Y3771900D01*
G01X-1790700Y3841646D02*
G01X-1790700Y3867554D01*
G01X-1790700Y3702154D02*
G01X-1790700Y3676246D01*
G01X-1276246Y3975100D02*
G01X-1302154Y3975100D01*
G01X-1136754Y3975100D02*
G01X-1110846Y3975100D01*
G01X-1206500Y4044846D02*
G01X-1206500Y4070754D01*
G01X-1206500Y3905354D02*
G01X-1206500Y3879446D01*
G04 Copper End*

G04 Pad Start*
G54D12*
G01X0Y5600000D03*
G01X476999Y5576202D03*
G01X946899Y5406403D03*
G01X1302499Y5122304D03*
G01X1607299Y4647705D03*
G01X1645399Y4033406D03*
G01X1587500Y3594100D03*
G01X1429499Y3058808D03*
G01X1155700Y2743200D03*
G01X889000Y2413000D03*
G01X515099Y2282711D03*
G01X-216802Y2257501D03*
G01X-635902Y2325002D03*
G01X-1004202Y2587003D03*
G01X-1334402Y2861704D03*
G01X-1612900Y3225800D03*
G01X-1790700Y3771900D03*
G01X-1740802Y4270007D03*
G01X-1575702Y4786008D03*
G01X-1232802Y5187709D03*
G01X-889000Y5422900D03*
G01X-546100Y5626100D03*
G01X-241300Y5194300D03*
G01X-504901Y5110810D03*
G01X-800100Y4914900D03*
G01X-1003300Y4635500D03*
G01X-1231900Y4343400D03*
G01X-1206500Y3975100D03*
G01X-1152601Y3572205D03*
G01X-924001Y3221304D03*
G01X-673100Y2921000D03*
G01X-377901Y2824302D03*
G01X-101600Y2641600D03*
G01X176200Y2866911D03*
G01X481000Y2901010D03*
G01X735000Y3032709D03*
G01X989000Y3215208D03*
G01X1130300Y3581400D03*
G01X1090600Y3935806D03*
G01X1090600Y4321505D03*
G01X938200Y4681804D03*
G01X658800Y4953203D03*
G01X341300Y5135702D03*
G01X0Y5200000D03*
G54D13*
G01X0Y4724400D03*
G01X200000Y4700000D03*
G01X393700Y4638040D03*
G01X546100Y4521200D03*
G01X660400Y4368800D03*
G01X723900Y4191000D03*
G01X736600Y3987800D03*
G01X723900Y3797300D03*
G01X647700Y3619500D03*
G01X520700Y3467100D03*
G01X368300Y3340100D03*
G01X0Y3238500D03*
G01X-203200Y3263900D03*
G01X-381000Y3352800D03*
G01X-533400Y3479800D03*
G01X-647700Y3644900D03*
G01X-749300Y3835400D03*
G01X-762000Y4038600D03*
G01X-723900Y4241800D03*
G01X-635000Y4419600D03*
G01X-495300Y4572000D03*
G01X-317500Y4673600D03*
G04 Pad End*

G04 Track Start*
G54D11*
G01X0Y5600000D02*
G01X0Y5200000D01*
G01X476999Y5576202D02*
G01X476999Y5271402D01*
G01X341300Y5135702D01*
G01X946899Y5406403D02*
G01X946899Y5241303D01*
G01X658800Y4953203D01*
G01X1302499Y5122304D02*
G01X1302499Y5046104D01*
G01X938200Y4681804D01*
G01X1607299Y4647705D02*
G01X1416799Y4647705D01*
G01X1090600Y4321505D01*
G01X1645399Y4033406D02*
G01X1188199Y4033406D01*
G01X1090600Y3935806D01*
G01X1587500Y3594100D02*
G01X1143000Y3594100D01*
G01X1130300Y3581400D01*
G01X1429499Y3058808D02*
G01X1145400Y3058808D01*
G01X989000Y3215208D01*
G01X1155700Y2743200D02*
G01X1024509Y2743200D01*
G01X735000Y3032709D01*
G01X889000Y2413000D02*
G01X889000Y2493010D01*
G01X481000Y2901010D01*
G01X515099Y2282711D02*
G01X515099Y2528011D01*
G01X176200Y2866911D01*
G01X-216802Y2257501D02*
G01X-216802Y2526398D01*
G01X-101600Y2641600D01*
G01X-635902Y2325002D02*
G01X-635902Y2566302D01*
G01X-377901Y2824302D01*
G01X-1004202Y2587003D02*
G01X-1004202Y2589898D01*
G01X-673100Y2921000D01*
G01X-1334402Y2861704D02*
G01X-1283602Y2861704D01*
G01X-924001Y3221304D01*
G01X-1612900Y3225800D02*
G01X-1499006Y3225800D01*
G01X-1152601Y3572205D01*
G01X-1790700Y3771900D02*
G01X-1409700Y3771900D01*
G01X-1206500Y3975100D01*
G01X-1740802Y4270007D02*
G01X-1305293Y4270007D01*
G01X-1231900Y4343400D01*
G01X-1575702Y4786008D02*
G01X-1153808Y4786008D01*
G01X-1003300Y4635500D01*
G01X-1232802Y5187709D02*
G01X-1072909Y5187709D01*
G01X-800100Y4914900D01*
G01X-889000Y5422900D02*
G01X-816991Y5422900D01*
G01X-504901Y5110810D01*
G01X-546100Y5626100D02*
G01X-546100Y5499100D01*
G01X-241300Y5194300D01*
G01X200000Y4700000D02*
G01X341300Y4841300D01*
G01X341300Y5135702D01*
G01X393700Y4638040D02*
G01X658800Y4903140D01*
G01X658800Y4953203D01*
G01X546100Y4521200D02*
G01X777596Y4521200D01*
G01X938200Y4681804D01*
G01X660400Y4368800D02*
G01X1043305Y4368800D01*
G01X1090600Y4321505D01*
G01X723900Y4191000D02*
G01X979094Y3935806D01*
G01X1090600Y3935806D01*
G01X736600Y3987800D02*
G01X1130300Y3594100D01*
G01X1130300Y3581400D01*
G01X723900Y3797300D02*
G01X989000Y3532200D01*
G01X989000Y3215208D01*
G01X647700Y3619500D02*
G01X647700Y3120009D01*
G01X735000Y3032709D01*
G01X520700Y3467100D02*
G01X520700Y2940710D01*
G01X481000Y2901010D01*
G01X368300Y3340100D02*
G01X368300Y3059011D01*
G01X176200Y2866911D01*
G01X0Y3238500D02*
G01X0Y2743200D01*
G01X-101600Y2641600D01*
G01X-203200Y3263900D02*
G01X-203200Y2999003D01*
G01X-377901Y2824302D01*
G01X-381000Y3352800D02*
G01X-381000Y3213100D01*
G01X-673100Y2921000D01*
G01X-533400Y3479800D02*
G01X-791896Y3221304D01*
G01X-924001Y3221304D01*
G01X-647700Y3644900D02*
G01X-720395Y3572205D01*
G01X-1152601Y3572205D01*
G01X-749300Y3835400D02*
G01X-1066800Y3835400D01*
G01X-1206500Y3975100D01*
G01X-762000Y4038600D02*
G01X-927100Y4038600D01*
G01X-1231900Y4343400D01*
G01X-723900Y4241800D02*
G01X-1003300Y4521200D01*
G01X-1003300Y4635500D01*
G01X-635000Y4419600D02*
G01X-635000Y4749800D01*
G01X-800100Y4914900D01*
G01X-495300Y4572000D02*
G01X-495300Y5101209D01*
G01X-504901Y5110810D01*
G01X-317500Y4673600D02*
G01X-317500Y5118100D01*
G01X-241300Y5194300D01*
G01X0Y4724400D02*
G01X-684Y4725084D01*
G01X-684Y5199316D01*
G01X0Y5200000D01*
G04 Track End*

M02*

