G04 Layer: BottomLayer*
G04 EasyEDA Pro v2.2.35.2, 2025-01-16 15:30:06*
G04 Gerber Generator version 0.3*
G04 Scale: 100 percent, Rotated: No, Reflected: No*
G04 Dimensions in millimeters*
G04 Leading zeros omitted, absolute positions, 4 integers and 5 decimals*
%FSLAX45Y45*%
%MOMM*%
%ADD10C,0.2032*%
%ADD11C,0.254*%
%ADD12R,1.4X1.4*%
G75*


G04 Copper Start*
G36*
G01X1964186Y3999992D02*
G02X-1964186Y3999992I-1964186J0D01*
G02X1964186Y3999992I1964186J0D01*
G37*
%LPC*%
G36*
G01X-1720700Y3666086D02*
G03X-1684886Y3701900I0J35814D01*
G01X-1684886Y3841900D01*
G03X-1720700Y3877714I-35814J0D01*
G01X-1860700Y3877714D01*
G03X-1896514Y3841900I0J-35814D01*
G01X-1896514Y3701900D01*
G03X-1860700Y3666086I35814J0D01*
G01X-1720700Y3666086D01*
G37*
G36*
G01X-1670802Y4164193D02*
G03X-1634988Y4200007I0J35814D01*
G01X-1634988Y4340007D01*
G03X-1670802Y4375821I-35814J0D01*
G01X-1810802Y4375821D01*
G03X-1846616Y4340007I0J-35814D01*
G01X-1846616Y4200007D01*
G03X-1810802Y4164193I35814J0D01*
G01X-1670802Y4164193D01*
G37*
G36*
G01X-1542900Y3119986D02*
G03X-1507086Y3155800I0J35814D01*
G01X-1507086Y3295800D01*
G03X-1542900Y3331614I-35814J0D01*
G01X-1682900Y3331614D01*
G03X-1718714Y3295800I0J-35814D01*
G01X-1718714Y3155800D01*
G03X-1682900Y3119986I35814J0D01*
G01X-1542900Y3119986D01*
G37*
G36*
G01X-1505702Y4680194D02*
G03X-1469888Y4716008I0J35814D01*
G01X-1469888Y4856008D01*
G03X-1505702Y4891822I-35814J0D01*
G01X-1645702Y4891822D01*
G03X-1681516Y4856008I0J-35814D01*
G01X-1681516Y4716008D01*
G03X-1645702Y4680194I35814J0D01*
G01X-1505702Y4680194D01*
G37*
G36*
G01X-1264402Y2755890D02*
G03X-1228588Y2791704I0J35814D01*
G01X-1228588Y2931704D01*
G03X-1264402Y2967518I-35814J0D01*
G01X-1404402Y2967518D01*
G03X-1440216Y2931704I0J-35814D01*
G01X-1440216Y2791704D01*
G03X-1404402Y2755890I35814J0D01*
G01X-1264402Y2755890D01*
G37*
G36*
G01X-1162802Y5081895D02*
G03X-1126988Y5117709I0J35814D01*
G01X-1126988Y5257709D01*
G03X-1162802Y5293523I-35814J0D01*
G01X-1302802Y5293523D01*
G03X-1338616Y5257709I0J-35814D01*
G01X-1338616Y5117709D01*
G03X-1302802Y5081895I35814J0D01*
G01X-1162802Y5081895D01*
G37*
G36*
G01X-1161900Y4237586D02*
G03X-1126086Y4273400I0J35814D01*
G01X-1126086Y4413400D01*
G03X-1161900Y4449214I-35814J0D01*
G01X-1301900Y4449214D01*
G03X-1337714Y4413400I0J-35814D01*
G01X-1337714Y4273400D01*
G03X-1301900Y4237586I35814J0D01*
G01X-1161900Y4237586D01*
G37*
G36*
G01X-1136500Y3869286D02*
G03X-1100686Y3905100I0J35814D01*
G01X-1100686Y4045100D01*
G03X-1136500Y4080914I-35814J0D01*
G01X-1276500Y4080914D01*
G03X-1312314Y4045100I0J-35814D01*
G01X-1312314Y3905100D01*
G03X-1276500Y3869286I35814J0D01*
G01X-1136500Y3869286D01*
G37*
G36*
G01X-1082601Y3466391D02*
G03X-1046787Y3502205I0J35814D01*
G01X-1046787Y3642205D01*
G03X-1082601Y3678019I-35814J0D01*
G01X-1222601Y3678019D01*
G03X-1258415Y3642205I0J-35814D01*
G01X-1258415Y3502205D01*
G03X-1222601Y3466391I35814J0D01*
G01X-1082601Y3466391D01*
G37*
G36*
G01X-934202Y2481189D02*
G03X-898388Y2517003I0J35814D01*
G01X-898388Y2657003D01*
G03X-934202Y2692817I-35814J0D01*
G01X-1074202Y2692817D01*
G03X-1110016Y2657003I0J-35814D01*
G01X-1110016Y2517003D01*
G03X-1074202Y2481189I35814J0D01*
G01X-934202Y2481189D01*
G37*
G36*
G01X-933300Y4529686D02*
G03X-897486Y4565500I0J35814D01*
G01X-897486Y4705500D01*
G03X-933300Y4741314I-35814J0D01*
G01X-1073300Y4741314D01*
G03X-1109114Y4705500I0J-35814D01*
G01X-1109114Y4565500D01*
G03X-1073300Y4529686I35814J0D01*
G01X-933300Y4529686D01*
G37*
G36*
G01X-854001Y3115490D02*
G03X-818187Y3151304I0J35814D01*
G01X-818187Y3291304D01*
G03X-854001Y3327118I-35814J0D01*
G01X-994001Y3327118D01*
G03X-1029815Y3291304I0J-35814D01*
G01X-1029815Y3151304D01*
G03X-994001Y3115490I35814J0D01*
G01X-854001Y3115490D01*
G37*
G36*
G01X-819000Y5317086D02*
G03X-783186Y5352900I0J35814D01*
G01X-783186Y5492900D01*
G03X-819000Y5528714I-35814J0D01*
G01X-959000Y5528714D01*
G03X-994814Y5492900I0J-35814D01*
G01X-994814Y5352900D01*
G03X-959000Y5317086I35814J0D01*
G01X-819000Y5317086D01*
G37*
G36*
G01X-730100Y4809086D02*
G03X-694286Y4844900I0J35814D01*
G01X-694286Y4984900D01*
G03X-730100Y5020714I-35814J0D01*
G01X-870100Y5020714D01*
G03X-905914Y4984900I0J-35814D01*
G01X-905914Y4844900D01*
G03X-870100Y4809086I35814J0D01*
G01X-730100Y4809086D01*
G37*
G36*
G01X-603100Y2815186D02*
G03X-567286Y2851000I0J35814D01*
G01X-567286Y2991000D01*
G03X-603100Y3026814I-35814J0D01*
G01X-743100Y3026814D01*
G03X-778914Y2991000I0J-35814D01*
G01X-778914Y2851000D01*
G03X-743100Y2815186I35814J0D01*
G01X-603100Y2815186D01*
G37*
G36*
G01X-565902Y2219188D02*
G03X-530088Y2255002I0J35814D01*
G01X-530088Y2395002D01*
G03X-565902Y2430816I-35814J0D01*
G01X-705902Y2430816D01*
G03X-741716Y2395002I0J-35814D01*
G01X-741716Y2255002D01*
G03X-705902Y2219188I35814J0D01*
G01X-565902Y2219188D01*
G37*
G36*
G01X-476100Y5520286D02*
G03X-440286Y5556100I0J35814D01*
G01X-440286Y5696100D01*
G03X-476100Y5731914I-35814J0D01*
G01X-616100Y5731914D01*
G03X-651914Y5696100I0J-35814D01*
G01X-651914Y5556100D01*
G03X-616100Y5520286I35814J0D01*
G01X-476100Y5520286D01*
G37*
G36*
G01X-434901Y5004996D02*
G03X-399087Y5040810I0J35814D01*
G01X-399087Y5180810D01*
G03X-434901Y5216624I-35814J0D01*
G01X-574901Y5216624D01*
G03X-610715Y5180810I0J-35814D01*
G01X-610715Y5040810D01*
G03X-574901Y5004996I35814J0D01*
G01X-434901Y5004996D01*
G37*
G36*
G01X-307901Y2718488D02*
G03X-272087Y2754302I0J35814D01*
G01X-272087Y2894302D01*
G03X-307901Y2930116I-35814J0D01*
G01X-447901Y2930116D01*
G03X-483715Y2894302I0J-35814D01*
G01X-483715Y2754302D01*
G03X-447901Y2718488I35814J0D01*
G01X-307901Y2718488D01*
G37*
G36*
G01X-171300Y5088486D02*
G03X-135486Y5124300I0J35814D01*
G01X-135486Y5264300D01*
G03X-171300Y5300114I-35814J0D01*
G01X-311300Y5300114D01*
G03X-347114Y5264300I0J-35814D01*
G01X-347114Y5124300D01*
G03X-311300Y5088486I35814J0D01*
G01X-171300Y5088486D01*
G37*
G36*
G01X-146802Y2151687D02*
G03X-110988Y2187501I0J35814D01*
G01X-110988Y2327501D01*
G03X-146802Y2363315I-35814J0D01*
G01X-286802Y2363315D01*
G03X-322616Y2327501I0J-35814D01*
G01X-322616Y2187501D01*
G03X-286802Y2151687I35814J0D01*
G01X-146802Y2151687D01*
G37*
G36*
G01X-31600Y2535786D02*
G03X4214Y2571600I0J35814D01*
G01X4214Y2711600D01*
G03X-31600Y2747414I-35814J0D01*
G01X-171600Y2747414D01*
G03X-207414Y2711600I0J-35814D01*
G01X-207414Y2571600D01*
G03X-171600Y2535786I35814J0D01*
G01X-31600Y2535786D01*
G37*
G36*
G01X70000Y5094186D02*
G03X105814Y5130000I0J35814D01*
G01X105814Y5270000D01*
G03X70000Y5305814I-35814J0D01*
G01X-70000Y5305814D01*
G03X-105814Y5270000I0J-35814D01*
G01X-105814Y5130000D01*
G03X-70000Y5094186I35814J0D01*
G01X70000Y5094186D01*
G37*
G36*
G01X70000Y5494186D02*
G03X105814Y5530000I0J35814D01*
G01X105814Y5670000D01*
G03X70000Y5705814I-35814J0D01*
G01X-70000Y5705814D01*
G03X-105814Y5670000I0J-35814D01*
G01X-105814Y5530000D01*
G03X-70000Y5494186I35814J0D01*
G01X70000Y5494186D01*
G37*
G36*
G01X246200Y2761097D02*
G03X282014Y2796911I0J35814D01*
G01X282014Y2936911D01*
G03X246200Y2972725I-35814J0D01*
G01X106200Y2972725D01*
G03X70386Y2936911I0J-35814D01*
G01X70386Y2796911D01*
G03X106200Y2761097I35814J0D01*
G01X246200Y2761097D01*
G37*
G36*
G01X411300Y5029888D02*
G03X447114Y5065702I0J35814D01*
G01X447114Y5205702D01*
G03X411300Y5241516I-35814J0D01*
G01X271300Y5241516D01*
G03X235486Y5205702I0J-35814D01*
G01X235486Y5065702D01*
G03X271300Y5029888I35814J0D01*
G01X411300Y5029888D01*
G37*
G36*
G01X546999Y5470388D02*
G03X582813Y5506202I0J35814D01*
G01X582813Y5646202D01*
G03X546999Y5682016I-35814J0D01*
G01X406999Y5682016D01*
G03X371185Y5646202I0J-35814D01*
G01X371185Y5506202D01*
G03X406999Y5470388I35814J0D01*
G01X546999Y5470388D01*
G37*
G36*
G01X551000Y2795196D02*
G03X586814Y2831010I0J35814D01*
G01X586814Y2971010D01*
G03X551000Y3006824I-35814J0D01*
G01X411000Y3006824D01*
G03X375186Y2971010I0J-35814D01*
G01X375186Y2831010D01*
G03X411000Y2795196I35814J0D01*
G01X551000Y2795196D01*
G37*
G36*
G01X585099Y2176897D02*
G03X620913Y2212711I0J35814D01*
G01X620913Y2352711D01*
G03X585099Y2388525I-35814J0D01*
G01X445099Y2388525D01*
G03X409285Y2352711I0J-35814D01*
G01X409285Y2212711D01*
G03X445099Y2176897I35814J0D01*
G01X585099Y2176897D01*
G37*
G36*
G01X728800Y4847389D02*
G03X764614Y4883203I0J35814D01*
G01X764614Y5023203D01*
G03X728800Y5059017I-35814J0D01*
G01X588800Y5059017D01*
G03X552986Y5023203I0J-35814D01*
G01X552986Y4883203D01*
G03X588800Y4847389I35814J0D01*
G01X728800Y4847389D01*
G37*
G36*
G01X805000Y2926895D02*
G03X840814Y2962709I0J35814D01*
G01X840814Y3102709D01*
G03X805000Y3138523I-35814J0D01*
G01X665000Y3138523D01*
G03X629186Y3102709I0J-35814D01*
G01X629186Y2962709D01*
G03X665000Y2926895I35814J0D01*
G01X805000Y2926895D01*
G37*
G36*
G01X959000Y2307186D02*
G03X994814Y2343000I0J35814D01*
G01X994814Y2483000D01*
G03X959000Y2518814I-35814J0D01*
G01X819000Y2518814D01*
G03X783186Y2483000I0J-35814D01*
G01X783186Y2343000D01*
G03X819000Y2307186I35814J0D01*
G01X959000Y2307186D01*
G37*
G36*
G01X1008200Y4575990D02*
G03X1044014Y4611804I0J35814D01*
G01X1044014Y4751804D01*
G03X1008200Y4787618I-35814J0D01*
G01X868200Y4787618D01*
G03X832386Y4751804I0J-35814D01*
G01X832386Y4611804D01*
G03X868200Y4575990I35814J0D01*
G01X1008200Y4575990D01*
G37*
G36*
G01X1016899Y5300589D02*
G03X1052713Y5336403I0J35814D01*
G01X1052713Y5476403D01*
G03X1016899Y5512217I-35814J0D01*
G01X876899Y5512217D01*
G03X841085Y5476403I0J-35814D01*
G01X841085Y5336403D01*
G03X876899Y5300589I35814J0D01*
G01X1016899Y5300589D01*
G37*
G36*
G01X1059000Y3109394D02*
G03X1094814Y3145208I0J35814D01*
G01X1094814Y3285208D01*
G03X1059000Y3321022I-35814J0D01*
G01X919000Y3321022D01*
G03X883186Y3285208I0J-35814D01*
G01X883186Y3145208D01*
G03X919000Y3109394I35814J0D01*
G01X1059000Y3109394D01*
G37*
G36*
G01X1160600Y4215691D02*
G03X1196414Y4251505I0J35814D01*
G01X1196414Y4391505D01*
G03X1160600Y4427319I-35814J0D01*
G01X1020600Y4427319D01*
G03X984786Y4391505I0J-35814D01*
G01X984786Y4251505D01*
G03X1020600Y4215691I35814J0D01*
G01X1160600Y4215691D01*
G37*
G36*
G01X1160600Y3829992D02*
G03X1196414Y3865806I0J35814D01*
G01X1196414Y4005806D01*
G03X1160600Y4041620I-35814J0D01*
G01X1020600Y4041620D01*
G03X984786Y4005806I0J-35814D01*
G01X984786Y3865806D01*
G03X1020600Y3829992I35814J0D01*
G01X1160600Y3829992D01*
G37*
G36*
G01X1200300Y3475586D02*
G03X1236114Y3511400I0J35814D01*
G01X1236114Y3651400D01*
G03X1200300Y3687214I-35814J0D01*
G01X1060300Y3687214D01*
G03X1024486Y3651400I0J-35814D01*
G01X1024486Y3511400D01*
G03X1060300Y3475586I35814J0D01*
G01X1200300Y3475586D01*
G37*
G36*
G01X1225700Y2637386D02*
G03X1261514Y2673200I0J35814D01*
G01X1261514Y2813200D01*
G03X1225700Y2849014I-35814J0D01*
G01X1085700Y2849014D01*
G03X1049886Y2813200I0J-35814D01*
G01X1049886Y2673200D01*
G03X1085700Y2637386I35814J0D01*
G01X1225700Y2637386D01*
G37*
G36*
G01X1372499Y5016490D02*
G03X1408313Y5052304I0J35814D01*
G01X1408313Y5192304D01*
G03X1372499Y5228118I-35814J0D01*
G01X1232499Y5228118D01*
G03X1196685Y5192304I0J-35814D01*
G01X1196685Y5052304D01*
G03X1232499Y5016490I35814J0D01*
G01X1372499Y5016490D01*
G37*
G36*
G01X1499499Y2952994D02*
G03X1535313Y2988808I0J35814D01*
G01X1535313Y3128808D01*
G03X1499499Y3164622I-35814J0D01*
G01X1359499Y3164622D01*
G03X1323685Y3128808I0J-35814D01*
G01X1323685Y2988808D01*
G03X1359499Y2952994I35814J0D01*
G01X1499499Y2952994D01*
G37*
G36*
G01X1657500Y3488286D02*
G03X1693314Y3524100I0J35814D01*
G01X1693314Y3664100D01*
G03X1657500Y3699914I-35814J0D01*
G01X1517500Y3699914D01*
G03X1481686Y3664100I0J-35814D01*
G01X1481686Y3524100D01*
G03X1517500Y3488286I35814J0D01*
G01X1657500Y3488286D01*
G37*
G36*
G01X1677299Y4541891D02*
G03X1713113Y4577705I0J35814D01*
G01X1713113Y4717705D01*
G03X1677299Y4753519I-35814J0D01*
G01X1537299Y4753519D01*
G03X1501485Y4717705I0J-35814D01*
G01X1501485Y4577705D01*
G03X1537299Y4541891I35814J0D01*
G01X1677299Y4541891D01*
G37*
G36*
G01X1715399Y3927592D02*
G03X1751213Y3963406I0J35814D01*
G01X1751213Y4103406D01*
G03X1715399Y4139220I-35814J0D01*
G01X1575399Y4139220D01*
G03X1539585Y4103406I0J-35814D01*
G01X1539585Y3963406D01*
G03X1575399Y3927592I35814J0D01*
G01X1715399Y3927592D01*
G37*
%LPD*%
G54D10*
G01X1964186Y3999992D02*
G02X-1964186Y3999992I-1964186J0D01*
G02X1964186Y3999992I1964186J0D01*
G01X-1720700Y3666086D02*
G03X-1684886Y3701900I0J35814D01*
G01X-1684886Y3841900D01*
G03X-1720700Y3877714I-35814J0D01*
G01X-1860700Y3877714D01*
G03X-1896514Y3841900I0J-35814D01*
G01X-1896514Y3701900D01*
G03X-1860700Y3666086I35814J0D01*
G01X-1720700Y3666086D01*
G01X-1670802Y4164193D02*
G03X-1634988Y4200007I0J35814D01*
G01X-1634988Y4340007D01*
G03X-1670802Y4375821I-35814J0D01*
G01X-1810802Y4375821D01*
G03X-1846616Y4340007I0J-35814D01*
G01X-1846616Y4200007D01*
G03X-1810802Y4164193I35814J0D01*
G01X-1670802Y4164193D01*
G01X-1542900Y3119986D02*
G03X-1507086Y3155800I0J35814D01*
G01X-1507086Y3295800D01*
G03X-1542900Y3331614I-35814J0D01*
G01X-1682900Y3331614D01*
G03X-1718714Y3295800I0J-35814D01*
G01X-1718714Y3155800D01*
G03X-1682900Y3119986I35814J0D01*
G01X-1542900Y3119986D01*
G01X-1505702Y4680194D02*
G03X-1469888Y4716008I0J35814D01*
G01X-1469888Y4856008D01*
G03X-1505702Y4891822I-35814J0D01*
G01X-1645702Y4891822D01*
G03X-1681516Y4856008I0J-35814D01*
G01X-1681516Y4716008D01*
G03X-1645702Y4680194I35814J0D01*
G01X-1505702Y4680194D01*
G01X-1264402Y2755890D02*
G03X-1228588Y2791704I0J35814D01*
G01X-1228588Y2931704D01*
G03X-1264402Y2967518I-35814J0D01*
G01X-1404402Y2967518D01*
G03X-1440216Y2931704I0J-35814D01*
G01X-1440216Y2791704D01*
G03X-1404402Y2755890I35814J0D01*
G01X-1264402Y2755890D01*
G01X-1162802Y5081895D02*
G03X-1126988Y5117709I0J35814D01*
G01X-1126988Y5257709D01*
G03X-1162802Y5293523I-35814J0D01*
G01X-1302802Y5293523D01*
G03X-1338616Y5257709I0J-35814D01*
G01X-1338616Y5117709D01*
G03X-1302802Y5081895I35814J0D01*
G01X-1162802Y5081895D01*
G01X-1161900Y4237586D02*
G03X-1126086Y4273400I0J35814D01*
G01X-1126086Y4413400D01*
G03X-1161900Y4449214I-35814J0D01*
G01X-1301900Y4449214D01*
G03X-1337714Y4413400I0J-35814D01*
G01X-1337714Y4273400D01*
G03X-1301900Y4237586I35814J0D01*
G01X-1161900Y4237586D01*
G01X-1136500Y3869286D02*
G03X-1100686Y3905100I0J35814D01*
G01X-1100686Y4045100D01*
G03X-1136500Y4080914I-35814J0D01*
G01X-1276500Y4080914D01*
G03X-1312314Y4045100I0J-35814D01*
G01X-1312314Y3905100D01*
G03X-1276500Y3869286I35814J0D01*
G01X-1136500Y3869286D01*
G01X-1082601Y3466391D02*
G03X-1046787Y3502205I0J35814D01*
G01X-1046787Y3642205D01*
G03X-1082601Y3678019I-35814J0D01*
G01X-1222601Y3678019D01*
G03X-1258415Y3642205I0J-35814D01*
G01X-1258415Y3502205D01*
G03X-1222601Y3466391I35814J0D01*
G01X-1082601Y3466391D01*
G01X-934202Y2481189D02*
G03X-898388Y2517003I0J35814D01*
G01X-898388Y2657003D01*
G03X-934202Y2692817I-35814J0D01*
G01X-1074202Y2692817D01*
G03X-1110016Y2657003I0J-35814D01*
G01X-1110016Y2517003D01*
G03X-1074202Y2481189I35814J0D01*
G01X-934202Y2481189D01*
G01X-933300Y4529686D02*
G03X-897486Y4565500I0J35814D01*
G01X-897486Y4705500D01*
G03X-933300Y4741314I-35814J0D01*
G01X-1073300Y4741314D01*
G03X-1109114Y4705500I0J-35814D01*
G01X-1109114Y4565500D01*
G03X-1073300Y4529686I35814J0D01*
G01X-933300Y4529686D01*
G01X-854001Y3115490D02*
G03X-818187Y3151304I0J35814D01*
G01X-818187Y3291304D01*
G03X-854001Y3327118I-35814J0D01*
G01X-994001Y3327118D01*
G03X-1029815Y3291304I0J-35814D01*
G01X-1029815Y3151304D01*
G03X-994001Y3115490I35814J0D01*
G01X-854001Y3115490D01*
G01X-819000Y5317086D02*
G03X-783186Y5352900I0J35814D01*
G01X-783186Y5492900D01*
G03X-819000Y5528714I-35814J0D01*
G01X-959000Y5528714D01*
G03X-994814Y5492900I0J-35814D01*
G01X-994814Y5352900D01*
G03X-959000Y5317086I35814J0D01*
G01X-819000Y5317086D01*
G01X-730100Y4809086D02*
G03X-694286Y4844900I0J35814D01*
G01X-694286Y4984900D01*
G03X-730100Y5020714I-35814J0D01*
G01X-870100Y5020714D01*
G03X-905914Y4984900I0J-35814D01*
G01X-905914Y4844900D01*
G03X-870100Y4809086I35814J0D01*
G01X-730100Y4809086D01*
G01X-603100Y2815186D02*
G03X-567286Y2851000I0J35814D01*
G01X-567286Y2991000D01*
G03X-603100Y3026814I-35814J0D01*
G01X-743100Y3026814D01*
G03X-778914Y2991000I0J-35814D01*
G01X-778914Y2851000D01*
G03X-743100Y2815186I35814J0D01*
G01X-603100Y2815186D01*
G01X-565902Y2219188D02*
G03X-530088Y2255002I0J35814D01*
G01X-530088Y2395002D01*
G03X-565902Y2430816I-35814J0D01*
G01X-705902Y2430816D01*
G03X-741716Y2395002I0J-35814D01*
G01X-741716Y2255002D01*
G03X-705902Y2219188I35814J0D01*
G01X-565902Y2219188D01*
G01X-476100Y5520286D02*
G03X-440286Y5556100I0J35814D01*
G01X-440286Y5696100D01*
G03X-476100Y5731914I-35814J0D01*
G01X-616100Y5731914D01*
G03X-651914Y5696100I0J-35814D01*
G01X-651914Y5556100D01*
G03X-616100Y5520286I35814J0D01*
G01X-476100Y5520286D01*
G01X-434901Y5004996D02*
G03X-399087Y5040810I0J35814D01*
G01X-399087Y5180810D01*
G03X-434901Y5216624I-35814J0D01*
G01X-574901Y5216624D01*
G03X-610715Y5180810I0J-35814D01*
G01X-610715Y5040810D01*
G03X-574901Y5004996I35814J0D01*
G01X-434901Y5004996D01*
G01X-307901Y2718488D02*
G03X-272087Y2754302I0J35814D01*
G01X-272087Y2894302D01*
G03X-307901Y2930116I-35814J0D01*
G01X-447901Y2930116D01*
G03X-483715Y2894302I0J-35814D01*
G01X-483715Y2754302D01*
G03X-447901Y2718488I35814J0D01*
G01X-307901Y2718488D01*
G01X-171300Y5088486D02*
G03X-135486Y5124300I0J35814D01*
G01X-135486Y5264300D01*
G03X-171300Y5300114I-35814J0D01*
G01X-311300Y5300114D01*
G03X-347114Y5264300I0J-35814D01*
G01X-347114Y5124300D01*
G03X-311300Y5088486I35814J0D01*
G01X-171300Y5088486D01*
G01X-146802Y2151687D02*
G03X-110988Y2187501I0J35814D01*
G01X-110988Y2327501D01*
G03X-146802Y2363315I-35814J0D01*
G01X-286802Y2363315D01*
G03X-322616Y2327501I0J-35814D01*
G01X-322616Y2187501D01*
G03X-286802Y2151687I35814J0D01*
G01X-146802Y2151687D01*
G01X-31600Y2535786D02*
G03X4214Y2571600I0J35814D01*
G01X4214Y2711600D01*
G03X-31600Y2747414I-35814J0D01*
G01X-171600Y2747414D01*
G03X-207414Y2711600I0J-35814D01*
G01X-207414Y2571600D01*
G03X-171600Y2535786I35814J0D01*
G01X-31600Y2535786D01*
G01X70000Y5094186D02*
G03X105814Y5130000I0J35814D01*
G01X105814Y5270000D01*
G03X70000Y5305814I-35814J0D01*
G01X-70000Y5305814D01*
G03X-105814Y5270000I0J-35814D01*
G01X-105814Y5130000D01*
G03X-70000Y5094186I35814J0D01*
G01X70000Y5094186D01*
G01X70000Y5494186D02*
G03X105814Y5530000I0J35814D01*
G01X105814Y5670000D01*
G03X70000Y5705814I-35814J0D01*
G01X-70000Y5705814D01*
G03X-105814Y5670000I0J-35814D01*
G01X-105814Y5530000D01*
G03X-70000Y5494186I35814J0D01*
G01X70000Y5494186D01*
G01X246200Y2761097D02*
G03X282014Y2796911I0J35814D01*
G01X282014Y2936911D01*
G03X246200Y2972725I-35814J0D01*
G01X106200Y2972725D01*
G03X70386Y2936911I0J-35814D01*
G01X70386Y2796911D01*
G03X106200Y2761097I35814J0D01*
G01X246200Y2761097D01*
G01X411300Y5029888D02*
G03X447114Y5065702I0J35814D01*
G01X447114Y5205702D01*
G03X411300Y5241516I-35814J0D01*
G01X271300Y5241516D01*
G03X235486Y5205702I0J-35814D01*
G01X235486Y5065702D01*
G03X271300Y5029888I35814J0D01*
G01X411300Y5029888D01*
G01X546999Y5470388D02*
G03X582813Y5506202I0J35814D01*
G01X582813Y5646202D01*
G03X546999Y5682016I-35814J0D01*
G01X406999Y5682016D01*
G03X371185Y5646202I0J-35814D01*
G01X371185Y5506202D01*
G03X406999Y5470388I35814J0D01*
G01X546999Y5470388D01*
G01X551000Y2795196D02*
G03X586814Y2831010I0J35814D01*
G01X586814Y2971010D01*
G03X551000Y3006824I-35814J0D01*
G01X411000Y3006824D01*
G03X375186Y2971010I0J-35814D01*
G01X375186Y2831010D01*
G03X411000Y2795196I35814J0D01*
G01X551000Y2795196D01*
G01X585099Y2176897D02*
G03X620913Y2212711I0J35814D01*
G01X620913Y2352711D01*
G03X585099Y2388525I-35814J0D01*
G01X445099Y2388525D01*
G03X409285Y2352711I0J-35814D01*
G01X409285Y2212711D01*
G03X445099Y2176897I35814J0D01*
G01X585099Y2176897D01*
G01X728800Y4847389D02*
G03X764614Y4883203I0J35814D01*
G01X764614Y5023203D01*
G03X728800Y5059017I-35814J0D01*
G01X588800Y5059017D01*
G03X552986Y5023203I0J-35814D01*
G01X552986Y4883203D01*
G03X588800Y4847389I35814J0D01*
G01X728800Y4847389D01*
G01X805000Y2926895D02*
G03X840814Y2962709I0J35814D01*
G01X840814Y3102709D01*
G03X805000Y3138523I-35814J0D01*
G01X665000Y3138523D01*
G03X629186Y3102709I0J-35814D01*
G01X629186Y2962709D01*
G03X665000Y2926895I35814J0D01*
G01X805000Y2926895D01*
G01X959000Y2307186D02*
G03X994814Y2343000I0J35814D01*
G01X994814Y2483000D01*
G03X959000Y2518814I-35814J0D01*
G01X819000Y2518814D01*
G03X783186Y2483000I0J-35814D01*
G01X783186Y2343000D01*
G03X819000Y2307186I35814J0D01*
G01X959000Y2307186D01*
G01X1008200Y4575990D02*
G03X1044014Y4611804I0J35814D01*
G01X1044014Y4751804D01*
G03X1008200Y4787618I-35814J0D01*
G01X868200Y4787618D01*
G03X832386Y4751804I0J-35814D01*
G01X832386Y4611804D01*
G03X868200Y4575990I35814J0D01*
G01X1008200Y4575990D01*
G01X1016899Y5300589D02*
G03X1052713Y5336403I0J35814D01*
G01X1052713Y5476403D01*
G03X1016899Y5512217I-35814J0D01*
G01X876899Y5512217D01*
G03X841085Y5476403I0J-35814D01*
G01X841085Y5336403D01*
G03X876899Y5300589I35814J0D01*
G01X1016899Y5300589D01*
G01X1059000Y3109394D02*
G03X1094814Y3145208I0J35814D01*
G01X1094814Y3285208D01*
G03X1059000Y3321022I-35814J0D01*
G01X919000Y3321022D01*
G03X883186Y3285208I0J-35814D01*
G01X883186Y3145208D01*
G03X919000Y3109394I35814J0D01*
G01X1059000Y3109394D01*
G01X1160600Y4215691D02*
G03X1196414Y4251505I0J35814D01*
G01X1196414Y4391505D01*
G03X1160600Y4427319I-35814J0D01*
G01X1020600Y4427319D01*
G03X984786Y4391505I0J-35814D01*
G01X984786Y4251505D01*
G03X1020600Y4215691I35814J0D01*
G01X1160600Y4215691D01*
G01X1160600Y3829992D02*
G03X1196414Y3865806I0J35814D01*
G01X1196414Y4005806D01*
G03X1160600Y4041620I-35814J0D01*
G01X1020600Y4041620D01*
G03X984786Y4005806I0J-35814D01*
G01X984786Y3865806D01*
G03X1020600Y3829992I35814J0D01*
G01X1160600Y3829992D01*
G01X1200300Y3475586D02*
G03X1236114Y3511400I0J35814D01*
G01X1236114Y3651400D01*
G03X1200300Y3687214I-35814J0D01*
G01X1060300Y3687214D01*
G03X1024486Y3651400I0J-35814D01*
G01X1024486Y3511400D01*
G03X1060300Y3475586I35814J0D01*
G01X1200300Y3475586D01*
G01X1225700Y2637386D02*
G03X1261514Y2673200I0J35814D01*
G01X1261514Y2813200D01*
G03X1225700Y2849014I-35814J0D01*
G01X1085700Y2849014D01*
G03X1049886Y2813200I0J-35814D01*
G01X1049886Y2673200D01*
G03X1085700Y2637386I35814J0D01*
G01X1225700Y2637386D01*
G01X1372499Y5016490D02*
G03X1408313Y5052304I0J35814D01*
G01X1408313Y5192304D01*
G03X1372499Y5228118I-35814J0D01*
G01X1232499Y5228118D01*
G03X1196685Y5192304I0J-35814D01*
G01X1196685Y5052304D01*
G03X1232499Y5016490I35814J0D01*
G01X1372499Y5016490D01*
G01X1499499Y2952994D02*
G03X1535313Y2988808I0J35814D01*
G01X1535313Y3128808D01*
G03X1499499Y3164622I-35814J0D01*
G01X1359499Y3164622D01*
G03X1323685Y3128808I0J-35814D01*
G01X1323685Y2988808D01*
G03X1359499Y2952994I35814J0D01*
G01X1499499Y2952994D01*
G01X1657500Y3488286D02*
G03X1693314Y3524100I0J35814D01*
G01X1693314Y3664100D01*
G03X1657500Y3699914I-35814J0D01*
G01X1517500Y3699914D01*
G03X1481686Y3664100I0J-35814D01*
G01X1481686Y3524100D01*
G03X1517500Y3488286I35814J0D01*
G01X1657500Y3488286D01*
G01X1677299Y4541891D02*
G03X1713113Y4577705I0J35814D01*
G01X1713113Y4717705D01*
G03X1677299Y4753519I-35814J0D01*
G01X1537299Y4753519D01*
G03X1501485Y4717705I0J-35814D01*
G01X1501485Y4577705D01*
G03X1537299Y4541891I35814J0D01*
G01X1677299Y4541891D01*
G01X1715399Y3927592D02*
G03X1751213Y3963406I0J35814D01*
G01X1751213Y4103406D01*
G03X1715399Y4139220I-35814J0D01*
G01X1575399Y4139220D01*
G03X1539585Y4103406I0J-35814D01*
G01X1539585Y3963406D01*
G03X1575399Y3927592I35814J0D01*
G01X1715399Y3927592D01*
G54D11*
G01X-1860446Y3771900D02*
G01X-1886354Y3771900D01*
G01X-1720954Y3771900D02*
G01X-1695046Y3771900D01*
G01X-1790700Y3841646D02*
G01X-1790700Y3867554D01*
G01X-1790700Y3702154D02*
G01X-1790700Y3676246D01*
G01X-1276246Y3975100D02*
G01X-1302154Y3975100D01*
G01X-1136754Y3975100D02*
G01X-1110846Y3975100D01*
G01X-1206500Y4044846D02*
G01X-1206500Y4070754D01*
G01X-1206500Y3905354D02*
G01X-1206500Y3879446D01*
G04 Copper End*

G04 Pad Start*
G54D12*
G01X0Y5600000D03*
G01X476999Y5576202D03*
G01X946899Y5406403D03*
G01X1302499Y5122304D03*
G01X1607299Y4647705D03*
G01X1645399Y4033406D03*
G01X1587500Y3594100D03*
G01X1429499Y3058808D03*
G01X1155700Y2743200D03*
G01X889000Y2413000D03*
G01X515099Y2282711D03*
G01X-216802Y2257501D03*
G01X-635902Y2325002D03*
G01X-1004202Y2587003D03*
G01X-1334402Y2861704D03*
G01X-1612900Y3225800D03*
G01X-1790700Y3771900D03*
G01X-1740802Y4270007D03*
G01X-1575702Y4786008D03*
G01X-1232802Y5187709D03*
G01X-889000Y5422900D03*
G01X-546100Y5626100D03*
G01X-241300Y5194300D03*
G01X-504901Y5110810D03*
G01X-800100Y4914900D03*
G01X-1003300Y4635500D03*
G01X-1231900Y4343400D03*
G01X-1206500Y3975100D03*
G01X-1152601Y3572205D03*
G01X-924001Y3221304D03*
G01X-673100Y2921000D03*
G01X-377901Y2824302D03*
G01X-101600Y2641600D03*
G01X176200Y2866911D03*
G01X481000Y2901010D03*
G01X735000Y3032709D03*
G01X989000Y3215208D03*
G01X1130300Y3581400D03*
G01X1090600Y3935806D03*
G01X1090600Y4321505D03*
G01X938200Y4681804D03*
G01X658800Y4953203D03*
G01X341300Y5135702D03*
G01X0Y5200000D03*
G04 Pad End*

M02*

