G04 Layer: BottomSilkscreenLayer*
G04 EasyEDA Pro v2.2.35.2, 2025-01-16 15:30:06*
G04 Gerber Generator version 0.3*
G04 Scale: 100 percent, Rotated: No, Reflected: No*
G04 Dimensions in millimeters*
G04 Leading zeros omitted, absolute positions, 4 integers and 5 decimals*
%FSLAX45Y45*%
%MOMM*%
%ADD10C,0.254*%
G75*


G04 Image Start*
G36*
G01X-166036Y4964596D02*
G01X-148986Y4963492D01*
G01X-130041Y4961476D01*
G01X-111097Y4959460D01*
G01X-95941Y4956406D01*
G01X-80786Y4953353D01*
G01X-65630Y4948762D01*
G01X-50475Y4944171D01*
G01X-35951Y4938441D01*
G01X-21427Y4932711D01*
G01X-7483Y4926139D01*
G01X6460Y4919567D01*
G01X20298Y4911594D01*
G01X34137Y4903621D01*
G01X46770Y4895127D01*
G01X59403Y4886632D01*
G01X71401Y4877342D01*
G01X83399Y4868051D01*
G01X99032Y4852858D01*
G01X114665Y4837665D01*
G01X124630Y4825745D01*
G01X134595Y4813825D01*
G01X141981Y4803007D01*
G01X149367Y4792189D01*
G01X156588Y4779643D01*
G01X163810Y4767098D01*
G01X169547Y4754379D01*
G01X175283Y4741661D01*
G01X181335Y4723344D01*
G01X187387Y4705028D01*
G01X190567Y4688606D01*
G01X193746Y4672184D01*
G01X195024Y4659552D01*
G01X196303Y4646920D01*
G01X197083Y4629867D01*
G01X197863Y4612813D01*
G01X199774Y4605866D01*
G01X201684Y4598918D01*
G01X204934Y4593313D01*
G01X208183Y4587709D01*
G01X213140Y4582330D01*
G01X218097Y4576951D01*
G01X224000Y4573190D01*
G01X229902Y4569429D01*
G01X237756Y4566804D01*
G01X245609Y4564180D01*
G01X254174Y4564195D01*
G01X262739Y4564210D01*
G01X269243Y4565942D01*
G01X275747Y4567674D01*
G01X282452Y4571295D01*
G01X289158Y4574917D01*
G01X295670Y4581407D01*
G01X302183Y4587896D01*
G01X306060Y4595656D01*
G01X309937Y4603416D01*
G01X311452Y4610641D01*
G01X312967Y4617866D01*
G01X312203Y4637446D01*
G01X311440Y4657026D01*
G01X309957Y4670003D01*
G01X308474Y4682979D01*
G01X309031Y4683536D01*
G01X309587Y4684094D01*
G01X328472Y4679227D01*
G01X347357Y4674360D01*
G01X360618Y4670481D01*
G01X373879Y4666601D01*
G01X394086Y4659727D01*
G01X414294Y4652854D01*
G01X433238Y4645251D01*
G01X452183Y4637648D01*
G01X465058Y4631905D01*
G01X477933Y4626162D01*
G01X498105Y4616059D01*
G01X518277Y4605956D01*
G01X539537Y4593789D01*
G01X560797Y4581623D01*
G01X584162Y4566093D01*
G01X607526Y4550562D01*
G01X622050Y4538877D01*
G01X636574Y4527193D01*
G01X656133Y4510000D01*
G01X675692Y4492808D01*
G01X692756Y4477018D01*
G01X709819Y4461228D01*
G01X737608Y4434575D01*
G01X765396Y4407921D01*
G01X810863Y4363200D01*
G01X856329Y4318478D01*
G01X867696Y4308918D01*
G01X879062Y4299358D01*
G01X889166Y4291702D01*
G01X899270Y4284045D01*
G01X913162Y4274980D01*
G01X927055Y4265914D01*
G01X945999Y4256574D01*
G01X964944Y4247233D01*
G01X980099Y4242219D01*
G01X995255Y4237205D01*
G01X1009779Y4234270D01*
G01X1024303Y4231336D01*
G01X1049562Y4231330D01*
G01X1074821Y4231323D01*
G01X1087450Y4233681D01*
G01X1100080Y4236038D01*
G01X1113973Y4240225D01*
G01X1127865Y4244412D01*
G01X1141699Y4250214D01*
G01X1155532Y4256015D01*
G01X1167589Y4262498D01*
G01X1179646Y4268980D01*
G01X1191606Y4276496D01*
G01X1203565Y4284012D01*
G01X1217496Y4294381D01*
G01X1231428Y4304749D01*
G01X1243426Y4314757D01*
G01X1255424Y4324765D01*
G01X1276130Y4344994D01*
G01X1296836Y4365224D01*
G01X1312256Y4382496D01*
G01X1327675Y4399767D01*
G01X1342940Y4418640D01*
G01X1358204Y4437513D01*
G01X1372981Y4457582D01*
G01X1387757Y4477650D01*
G01X1406243Y4505440D01*
G01X1424728Y4533231D01*
G01X1440644Y4559759D01*
G01X1456559Y4586286D01*
G01X1470064Y4610919D01*
G01X1483569Y4635551D01*
G01X1497238Y4663342D01*
G01X1510906Y4691133D01*
G01X1517418Y4706173D01*
G01X1523931Y4721214D01*
G01X1528399Y4727947D01*
G01X1532867Y4734680D01*
G01X1539203Y4740378D01*
G01X1545539Y4746076D01*
G01X1554562Y4750517D01*
G01X1563586Y4754957D01*
G01X1572426Y4756814D01*
G01X1581267Y4758670D01*
G01X1586950Y4758670D01*
G01X1592634Y4758670D01*
G01X1600843Y4756905D01*
G01X1609052Y4755140D01*
G01X1674095Y4729712D01*
G01X1739137Y4704285D01*
G01X1747752Y4698460D01*
G01X1756368Y4692635D01*
G01X1761938Y4685795D01*
G01X1767509Y4678955D01*
G01X1771193Y4671149D01*
G01X1774878Y4663342D01*
G01X1776439Y4656210D01*
G01X1778000Y4649079D01*
G01X1777379Y4635999D01*
G01X1776757Y4622919D01*
G01X1768244Y4599550D01*
G01X1759731Y4576180D01*
G01X1745445Y4540179D01*
G01X1731159Y4504177D01*
G01X1717911Y4473224D01*
G01X1704663Y4442271D01*
G01X1692049Y4414485D01*
G01X1679434Y4386699D01*
G01X1665317Y4357013D01*
G01X1651200Y4327328D01*
G01X1635956Y4297642D01*
G01X1620712Y4267957D01*
G01X1607424Y4243324D01*
G01X1594136Y4218691D01*
G01X1577331Y4189381D01*
G01X1560525Y4160071D01*
G01X1546395Y4136958D01*
G01X1532265Y4113845D01*
G01X1512718Y4084159D01*
G01X1493171Y4054474D01*
G01X1481110Y4037421D01*
G01X1469048Y4020367D01*
G01X1453911Y4000156D01*
G01X1438774Y3979944D01*
G01X1423653Y3961231D01*
G01X1408532Y3942519D01*
G01X1390109Y3921440D01*
G01X1371686Y3900362D01*
G01X1345129Y3873798D01*
G01X1318572Y3847233D01*
G01X1299988Y3831325D01*
G01X1281405Y3815417D01*
G01X1266102Y3803571D01*
G01X1250799Y3791726D01*
G01X1235430Y3781200D01*
G01X1220061Y3770675D01*
G01X1203011Y3760458D01*
G01X1185961Y3750242D01*
G01X1161965Y3738568D01*
G01X1137969Y3726893D01*
G01X1120698Y3720464D01*
G01X1103428Y3714035D01*
G01X1087861Y3709551D01*
G01X1072295Y3705066D01*
G01X1053982Y3701391D01*
G01X1035669Y3697717D01*
G01X1017356Y3695809D01*
G01X999043Y3693901D01*
G01X953577Y3692619D01*
G01X908110Y3691338D01*
G01X890432Y3689340D01*
G01X872753Y3687341D01*
G01X868716Y3686479D01*
G01X864678Y3685616D01*
G01X873133Y3678550D01*
G01X881588Y3671484D01*
G01X894218Y3661991D01*
G01X906847Y3652498D01*
G01X925792Y3639903D01*
G01X944736Y3627307D01*
G01X957366Y3619713D01*
G01X969995Y3612119D01*
G01X987045Y3602760D01*
G01X1004095Y3593402D01*
G01X1013076Y3584559D01*
G01X1022056Y3575717D01*
G01X1026035Y3567830D01*
G01X1030013Y3559944D01*
G01X1031894Y3552722D01*
G01X1033775Y3545500D01*
G01X1033760Y3534713D01*
G01X1033745Y3523925D01*
G01X1031911Y3517035D01*
G01X1030078Y3510144D01*
G01X1026180Y3502225D01*
G01X1022282Y3494305D01*
G01X1015994Y3487423D01*
G01X1009705Y3480541D01*
G01X1002609Y3475830D01*
G01X995512Y3471119D01*
G01X986640Y3468032D01*
G01X977767Y3464946D01*
G01X940413Y3462587D01*
G01X903059Y3460227D01*
G01X825387Y3455755D01*
G01X747715Y3451282D01*
G01X701070Y3448777D01*
G01X654426Y3446272D01*
G01X653605Y3444943D01*
G01X652783Y3443613D01*
G01X651228Y3433241D01*
G01X649673Y3422868D01*
G01X637157Y3347075D01*
G01X624641Y3271283D01*
G01X613184Y3204333D01*
G01X601726Y3137382D01*
G01X586584Y3051484D01*
G01X571442Y2965586D01*
G01X558794Y2895477D01*
G01X546145Y2825369D01*
G01X544160Y2819053D01*
G01X542175Y2812737D01*
G01X538244Y2805247D01*
G01X534313Y2797757D01*
G01X526398Y2789840D01*
G01X518483Y2781924D01*
G01X509329Y2777418D01*
G01X500175Y2772913D01*
G01X491334Y2771057D01*
G01X482494Y2769200D01*
G01X318309Y2769200D01*
G01X154124Y2769200D01*
G01X145394Y2771050D01*
G01X136664Y2772900D01*
G01X128976Y2776521D01*
G01X121287Y2780143D01*
G01X114755Y2785339D01*
G01X108223Y2790534D01*
G01X102445Y2798632D01*
G01X96668Y2806731D01*
G01X93503Y2815140D01*
G01X90338Y2823549D01*
G01X88554Y2842776D01*
G01X86769Y2862002D01*
G01X75630Y2997573D01*
G01X64491Y3133143D01*
G01X63718Y3134394D01*
G01X62945Y3135645D01*
G01X40869Y3129290D01*
G01X18793Y3122935D01*
G01X-6458Y3116680D01*
G01X-31708Y3110426D01*
G01X-53721Y3105971D01*
G01X-75734Y3101516D01*
G01X-98467Y3097696D01*
G01X-121200Y3093876D01*
G01X-145828Y3090719D01*
G01X-170456Y3087561D01*
G01X-191295Y3085662D01*
G01X-212133Y3083763D01*
G01X-234235Y3082201D01*
G01X-256337Y3080638D01*
G01X-315065Y3080638D01*
G01X-373792Y3080638D01*
G01X-395894Y3082201D01*
G01X-417996Y3083763D01*
G01X-438834Y3085687D01*
G01X-459673Y3087611D01*
G01X-484279Y3090758D01*
G01X-508886Y3093905D01*
G01X-534166Y3098209D01*
G01X-559447Y3102514D01*
G01X-581549Y3107117D01*
G01X-603651Y3111720D01*
G01X-628730Y3117994D01*
G01X-653810Y3124267D01*
G01X-654572Y3123504D01*
G01X-655335Y3122741D01*
G01X-667573Y2974439D01*
G01X-679811Y2826137D01*
G01X-681984Y2819437D01*
G01X-684157Y2812737D01*
G01X-688088Y2805247D01*
G01X-692020Y2797757D01*
G01X-699934Y2789840D01*
G01X-707849Y2781924D01*
G01X-717003Y2777418D01*
G01X-726157Y2772913D01*
G01X-734998Y2771057D01*
G01X-743839Y2769200D01*
G01X-908023Y2769200D01*
G01X-1072208Y2769200D01*
G01X-1080938Y2771050D01*
G01X-1089668Y2772900D01*
G01X-1097357Y2776521D01*
G01X-1105045Y2780143D01*
G01X-1111577Y2785339D01*
G01X-1118109Y2790534D01*
G01X-1123795Y2798504D01*
G01X-1129481Y2806474D01*
G01X-1132032Y2812945D01*
G01X-1134582Y2819417D01*
G01X-1147869Y2877974D01*
G01X-1161156Y2936532D01*
G01X-1181989Y3030641D01*
G01X-1202822Y3124750D01*
G01X-1216193Y3186648D01*
G01X-1229564Y3248545D01*
G01X-1245381Y3323706D01*
G01X-1261198Y3398867D01*
G01X-1279344Y3489818D01*
G01X-1297489Y3580770D01*
G01X-1304643Y3619298D01*
G01X-1311796Y3657825D01*
G01X-1312076Y3658129D01*
G01X-1312357Y3658433D01*
G01X-1334365Y3655330D01*
G01X-1356374Y3652227D01*
G01X-1386053Y3649090D01*
G01X-1415733Y3645952D01*
G01X-1442255Y3644015D01*
G01X-1468777Y3642077D01*
G01X-1504771Y3640649D01*
G01X-1540766Y3639221D01*
G01X-1571077Y3640035D01*
G01X-1601388Y3640850D01*
G01X-1616543Y3642106D01*
G01X-1631698Y3643362D01*
G01X-1642434Y3645296D01*
G01X-1653169Y3647230D01*
G01X-1661596Y3649710D01*
G01X-1670024Y3652190D01*
G01X-1680535Y3657452D01*
G01X-1691047Y3662714D01*
G01X-1700533Y3672270D01*
G01X-1710020Y3681826D01*
G01X-1714093Y3690037D01*
G01X-1718166Y3698248D01*
G01X-1720083Y3705777D01*
G01X-1722000Y3713306D01*
G01X-1722000Y3724776D01*
G01X-1722000Y3736245D01*
G01X-1720070Y3743658D01*
G01X-1718139Y3751070D01*
G01X-1713491Y3760029D01*
G01X-1708842Y3768988D01*
G01X-1699950Y3777914D01*
G01X-1691058Y3786840D01*
G01X-1676534Y3795474D01*
G01X-1662009Y3804108D01*
G01X-1643649Y3816459D01*
G01X-1625289Y3828811D01*
G01X-1606392Y3842957D01*
G01X-1587495Y3857102D01*
G01X-1566656Y3873864D01*
G01X-1545817Y3890627D01*
G01X-1526873Y3906665D01*
G01X-1507929Y3922703D01*
G01X-1482038Y3945755D01*
G01X-1456147Y3968807D01*
G01X-1435940Y3987503D01*
G01X-1415733Y4006200D01*
G01X-1371388Y4049025D01*
G01X-1327044Y4091850D01*
G01X-1323573Y4109795D01*
G01X-1320102Y4127740D01*
G01X-1313373Y4154480D01*
G01X-1306645Y4181221D01*
G01X-1298419Y4205875D01*
G01X-1290193Y4230529D01*
G01X-1283650Y4246716D01*
G01X-1277107Y4262904D01*
G01X-1266767Y4284378D01*
G01X-1256427Y4305853D01*
G01X-1247853Y4321012D01*
G01X-1239280Y4336170D01*
G01X-1224984Y4357645D01*
G01X-1210688Y4379119D01*
G01X-1199658Y4393015D01*
G01X-1188627Y4406910D01*
G01X-1176350Y4420805D01*
G01X-1164073Y4434701D01*
G01X-1145283Y4453017D01*
G01X-1126494Y4471334D01*
G01X-1113875Y4481889D01*
G01X-1101256Y4492445D01*
G01X-1084838Y4504786D01*
G01X-1068419Y4517127D01*
G01X-1050106Y4529162D01*
G01X-1031793Y4541197D01*
G01X-1013628Y4551586D01*
G01X-995463Y4561975D01*
G01X-967530Y4575577D01*
G01X-939597Y4589178D01*
G01X-921916Y4596467D01*
G01X-904235Y4603757D01*
G01X-882133Y4611802D01*
G01X-860031Y4619848D01*
G01X-833509Y4628039D01*
G01X-806987Y4636229D01*
G01X-773754Y4644547D01*
G01X-740520Y4652864D01*
G01X-739854Y4652198D01*
G01X-739187Y4651531D01*
G01X-741354Y4632804D01*
G01X-743522Y4614077D01*
G01X-744145Y4574160D01*
G01X-744768Y4534244D01*
G01X-743315Y4514790D01*
G01X-741861Y4495335D01*
G01X-739940Y4478281D01*
G01X-738019Y4461228D01*
G01X-735544Y4445438D01*
G01X-733069Y4429648D01*
G01X-729225Y4410068D01*
G01X-725380Y4390488D01*
G01X-719228Y4365856D01*
G01X-713076Y4341223D01*
G01X-706740Y4320357D01*
G01X-700405Y4299492D01*
G01X-694524Y4282461D01*
G01X-688642Y4265430D01*
G01X-680447Y4244587D01*
G01X-672251Y4223744D01*
G01X-661868Y4202260D01*
G01X-651484Y4180777D01*
G01X-643531Y4166891D01*
G01X-635577Y4153004D01*
G01X-624877Y4136700D01*
G01X-614177Y4120395D01*
G01X-604573Y4107710D01*
G01X-594968Y4095026D01*
G01X-584022Y4082329D01*
G01X-573075Y4069632D01*
G01X-554894Y4051922D01*
G01X-536714Y4034212D01*
G01X-522821Y4023055D01*
G01X-508929Y4011898D01*
G01X-489353Y3998931D01*
G01X-469777Y3985964D01*
G01X-455884Y3978348D01*
G01X-441992Y3970731D01*
G01X-430625Y3965448D01*
G01X-419259Y3960164D01*
G01X-404103Y3954101D01*
G01X-388948Y3948037D01*
G01X-372635Y3942746D01*
G01X-356322Y3937455D01*
G01X-336009Y3932529D01*
G01X-315696Y3927603D01*
G01X-296120Y3924465D01*
G01X-276544Y3921328D01*
G01X-261389Y3919687D01*
G01X-246233Y3918047D01*
G01X-198872Y3918057D01*
G01X-151511Y3918068D01*
G01X-130673Y3920345D01*
G01X-109834Y3922622D01*
G01X-101277Y3924379D01*
G01X-92719Y3926136D01*
G01X-86204Y3929671D01*
G01X-79689Y3933206D01*
G01X-73187Y3939139D01*
G01X-66685Y3945073D01*
G01X-62531Y3952868D01*
G01X-58377Y3960664D01*
G01X-56651Y3967146D01*
G01X-54925Y3973628D01*
G01X-54941Y3980576D01*
G01X-54957Y3987524D01*
G01X-56235Y3993067D01*
G01X-57512Y3998610D01*
G01X-60742Y4005439D01*
G01X-63972Y4012267D01*
G01X-70933Y4019788D01*
G01X-77895Y4027308D01*
G01X-86918Y4031759D01*
G01X-95941Y4036210D01*
G01X-103560Y4037619D01*
G01X-111179Y4039027D01*
G01X-128188Y4036948D01*
G01X-145197Y4034869D01*
G01X-171500Y4033395D01*
G01X-197803Y4031921D01*
G01X-223912Y4033429D01*
G01X-250022Y4034937D01*
G01X-267072Y4037363D01*
G01X-284122Y4039790D01*
G01X-299165Y4043049D01*
G01X-314207Y4046307D01*
G01X-327581Y4050202D01*
G01X-340955Y4054096D01*
G01X-354216Y4059076D01*
G01X-367477Y4064056D01*
G01X-378844Y4069263D01*
G01X-390211Y4074471D01*
G01X-401577Y4080702D01*
G01X-412944Y4086934D01*
G01X-427105Y4096313D01*
G01X-441267Y4105691D01*
G01X-449668Y4112582D01*
G01X466418Y4112582D01*
G01X468507Y4103739D01*
G01X470596Y4094897D01*
G01X475509Y4084791D01*
G01X480422Y4074685D01*
G01X486540Y4067137D01*
G01X492658Y4059588D01*
G01X500206Y4053469D01*
G01X507753Y4047349D01*
G01X517856Y4042435D01*
G01X527960Y4037521D01*
G01X536721Y4035494D01*
G01X545482Y4033466D01*
G01X557560Y4033492D01*
G01X569638Y4033518D01*
G01X579472Y4036061D01*
G01X589306Y4038604D01*
G01X599679Y4043983D01*
G01X610052Y4049363D01*
G01X620277Y4059498D01*
G01X630502Y4069632D01*
G01X635663Y4078475D01*
G01X640824Y4087317D01*
G01X643557Y4095528D01*
G01X646290Y4103739D01*
G01X647666Y4114632D01*
G01X649043Y4125525D01*
G01X647100Y4137370D01*
G01X645157Y4149215D01*
G01X641945Y4157146D01*
G01X638733Y4165078D01*
G01X634496Y4172156D01*
G01X630260Y4179235D01*
G01X621271Y4188226D01*
G01X612281Y4197217D01*
G01X605204Y4201454D01*
G01X598127Y4205692D01*
G01X590379Y4208822D01*
G01X582630Y4211953D01*
G01X574239Y4213624D01*
G01X565849Y4215296D01*
G01X557902Y4215415D01*
G01X549955Y4215533D01*
G01X540230Y4213524D01*
G01X540230Y4213524D01*
G01X530504Y4211515D01*
G01X522989Y4208460D01*
G01X515474Y4205406D01*
G01X507473Y4200193D01*
G01X499473Y4194979D01*
G01X490835Y4185728D01*
G01X482197Y4176477D01*
G01X477041Y4166564D01*
G01X471885Y4156651D01*
G01X469152Y4146690D01*
G01X466420Y4136728D01*
G01X466419Y4124655D01*
G01X466418Y4112582D01*
G01X-449668Y4112582D01*
G01X-454891Y4116865D01*
G01X-468514Y4128039D01*
G01X-483100Y4143048D01*
G01X-497686Y4158057D01*
G01X-507226Y4170058D01*
G01X-516765Y4182058D01*
G01X-523757Y4192164D01*
G01X-530748Y4202270D01*
G01X-538012Y4214270D01*
G01X-545276Y4226271D01*
G01X-554467Y4244587D01*
G01X-563658Y4262904D01*
G01X-569611Y4277431D01*
G01X-575565Y4291958D01*
G01X-582413Y4310906D01*
G01X-589260Y4329854D01*
G01X-595518Y4350472D01*
G01X-601776Y4371089D01*
G01X-607362Y4393421D01*
G01X-612947Y4415752D01*
G01X-616735Y4435332D01*
G01X-620523Y4454912D01*
G01X-622523Y4468807D01*
G01X-624523Y4482703D01*
G01X-626458Y4500388D01*
G01X-628393Y4518073D01*
G01X-629129Y4549021D01*
G01X-629865Y4579970D01*
G01X-628400Y4600181D01*
G01X-626935Y4620393D01*
G01X-624387Y4638078D01*
G01X-621839Y4655763D01*
G01X-617981Y4673448D01*
G01X-614122Y4691133D01*
G01X-607921Y4710293D01*
G01X-601720Y4729454D01*
G01X-596609Y4741737D01*
G01X-591498Y4754020D01*
G01X-585723Y4765526D01*
G01X-579949Y4777031D01*
G01X-572359Y4789663D01*
G01X-564768Y4802295D01*
G01X-557068Y4813032D01*
G01X-549368Y4823770D01*
G01X-538521Y4836402D01*
G01X-527675Y4849034D01*
G01X-514923Y4861143D01*
G01X-502171Y4873251D01*
G01X-489469Y4882990D01*
G01X-476767Y4892728D01*
G01X-463816Y4900941D01*
G01X-450865Y4909154D01*
G01X-434962Y4917242D01*
G01X-419060Y4925330D01*
G01X-405267Y4930954D01*
G01X-391474Y4936579D01*
G01X-379475Y4940598D01*
G01X-367477Y4944618D01*
G01X-348533Y4949465D01*
G01X-329589Y4954312D01*
G01X-310013Y4957585D01*
G01X-290437Y4960859D01*
G01X-272124Y4962766D01*
G01X-253811Y4964674D01*
G01X-218448Y4965187D01*
G01X-183085Y4965700D01*
G01X-166036Y4964596D01*
G37*
G04 Image End*

G04 Text Start*
G36*
G01X1242676Y4730173D02*
G01X1242676Y4724015D01*
G01X1225743Y4724015D01*
G01X1226127Y4727479D01*
G01X1226512Y4732867D01*
G01X1226897Y4735946D01*
G01X1227260Y4780203D01*
G01X1242676Y4780203D01*
G01X1242676Y4749415D01*
G01X1265382Y4749415D01*
G01X1265382Y4749415D01*
G01X1288473Y4749800D01*
G01X1288857Y4765194D01*
G01X1288857Y4780203D01*
G01X1303482Y4780203D01*
G01X1303482Y4749415D01*
G01X1324264Y4749415D01*
G01X1324264Y4749415D01*
G01X1345430Y4749800D01*
G01X1345815Y4765194D01*
G01X1345815Y4780203D01*
G01X1303482Y4780203D01*
G01X1288857Y4780203D01*
G01X1242676Y4780203D01*
G01X1227260Y4780203D01*
G01X1227282Y4782897D01*
G01X1226970Y4820997D01*
G01X1242676Y4820997D01*
G01X1242676Y4793288D01*
G01X1265382Y4793288D01*
G01X1265382Y4793288D01*
G01X1288473Y4793673D01*
G01X1288857Y4807527D01*
G01X1288857Y4820997D01*
G01X1303482Y4820997D01*
G01X1303482Y4793288D01*
G01X1324264Y4793288D01*
G01X1324264Y4793288D01*
G01X1345430Y4793673D01*
G01X1345815Y4807527D01*
G01X1345815Y4820997D01*
G01X1303482Y4820997D01*
G01X1288857Y4820997D01*
G01X1242676Y4820997D01*
G01X1226970Y4820997D01*
G01X1226897Y4829849D01*
G01X1226512Y4832927D01*
G01X1226897Y4834371D01*
G01X1228051Y4834851D01*
G01X1230746Y4834467D01*
G01X1296170Y4834082D01*
G01X1361209Y4834467D01*
G01X1361786Y4834274D01*
G01X1361979Y4832927D01*
G01X1361594Y4829849D01*
G01X1361209Y4780588D01*
G01X1361594Y4731327D01*
G01X1361979Y4727479D01*
G01X1361979Y4724785D01*
G01X1346585Y4724785D01*
G01X1346200Y4726709D01*
G01X1345815Y4732482D01*
G01X1345815Y4736330D01*
G01X1242676Y4736330D01*
G01X1242676Y4730173D01*
G37*
G36*
G01X1366597Y4936067D02*
G01X1366597Y4927985D01*
G01X1363133Y4927985D01*
G01X1358515Y4928370D01*
G01X1293091Y4928754D01*
G01X1227667Y4928370D01*
G01X1224588Y4927985D01*
G01X1222664Y4927985D01*
G01X1222664Y4944149D01*
G01X1227282Y4944149D01*
G01X1233054Y4943764D01*
G01X1295400Y4943379D01*
G01X1357746Y4943764D01*
G01X1362749Y4944149D01*
G01X1366597Y4944149D01*
G01X1366597Y4936067D01*
G37*
G36*
G01X1350049Y4856018D02*
G01X1350433Y4853709D01*
G01X1349952Y4852939D01*
G01X1348509Y4852939D01*
G01X1341967Y4853324D01*
G01X1336194Y4853709D01*
G01X1293476Y4854094D01*
G01X1250757Y4853709D01*
G01X1244600Y4853324D01*
G01X1239597Y4853324D01*
G01X1239597Y4855249D01*
G01X1239982Y4858327D01*
G01X1240367Y4883343D01*
G01X1240165Y4896427D01*
G01X1255761Y4896427D01*
G01X1255761Y4866409D01*
G01X1295015Y4866409D01*
G01X1295015Y4866409D01*
G01X1334654Y4866794D01*
G01X1335039Y4881803D01*
G01X1335039Y4896427D01*
G01X1255761Y4896427D01*
G01X1240165Y4896427D01*
G01X1239982Y4908357D01*
G01X1239982Y4910282D01*
G01X1243830Y4910667D01*
G01X1251143Y4910282D01*
G01X1256146Y4909897D01*
G01X1296939Y4909512D01*
G01X1337733Y4909897D01*
G01X1349279Y4910667D01*
G01X1350145Y4910378D01*
G01X1350433Y4908743D01*
G01X1350049Y4905279D01*
G01X1349664Y4880649D01*
G01X1350049Y4856018D01*
G37*
G36*
G01X1413933Y4729788D02*
G01X1414318Y4725939D01*
G01X1414318Y4723246D01*
G01X1396615Y4723246D01*
G01X1397000Y4726709D01*
G01X1397385Y4733251D01*
G01X1397770Y4737485D01*
G01X1398154Y4784436D01*
G01X1397866Y4818688D01*
G01X1397000Y4829849D01*
G01X1395076Y4828309D01*
G01X1387379Y4820612D01*
G01X1382761Y4816764D01*
G01X1376988Y4812146D01*
G01X1373909Y4810221D01*
G01X1371985Y4808682D01*
G01X1371600Y4810606D01*
G01X1370446Y4813685D01*
G01X1368906Y4816379D01*
G01X1366982Y4819457D01*
G01X1365443Y4821767D01*
G01X1365635Y4822536D01*
G01X1375064Y4827924D01*
G01X1376988Y4829464D01*
G01X1382376Y4833312D01*
G01X1384300Y4835236D01*
G01X1388149Y4838315D01*
G01X1393921Y4844088D01*
G01X1395461Y4846397D01*
G01X1395364Y4848032D01*
G01X1394306Y4849861D01*
G01X1391997Y4852939D01*
G01X1390073Y4855633D01*
G01X1383146Y4866024D01*
G01X1379297Y4872182D01*
G01X1376988Y4876030D01*
G01X1364288Y4901430D01*
G01X1363999Y4902489D01*
G01X1366212Y4905279D01*
G01X1367367Y4907203D01*
G01X1368906Y4909127D01*
G01X1370446Y4910667D01*
G01X1384685Y4911051D01*
G01X1398154Y4911051D01*
G01X1398154Y4926830D01*
G01X1397770Y4943764D01*
G01X1397000Y4952230D01*
G01X1397000Y4953193D01*
G01X1397770Y4953770D01*
G01X1406621Y4954154D01*
G01X1414318Y4954154D01*
G01X1414318Y4950306D01*
G01X1413933Y4945303D01*
G01X1413549Y4927600D01*
G01X1413549Y4911051D01*
G01X1428173Y4911051D01*
G01X1443951Y4911436D01*
G01X1445876Y4911051D01*
G01X1446646Y4902970D01*
G01X1446646Y4895657D01*
G01X1443182Y4895657D01*
G01X1438564Y4896043D01*
G01X1410085Y4896427D01*
G01X1382761Y4896427D01*
G01X1383146Y4894888D01*
G01X1386609Y4886806D01*
G01X1394306Y4873336D01*
G01X1396230Y4870257D01*
G01X1398539Y4866794D01*
G01X1401233Y4862946D01*
G01X1405851Y4856788D01*
G01X1412009Y4849091D01*
G01X1414703Y4846397D01*
G01X1417782Y4842549D01*
G01X1429327Y4831003D01*
G01X1432406Y4828694D01*
G01X1435100Y4826000D01*
G01X1440873Y4821382D01*
G01X1442797Y4820227D01*
G01X1444721Y4818688D01*
G01X1447800Y4816379D01*
G01X1451649Y4813685D01*
G01X1454343Y4811376D01*
G01X1454631Y4810318D01*
G01X1453957Y4809451D01*
G01X1451649Y4806757D01*
G01X1449724Y4803679D01*
G01X1448185Y4800600D01*
G01X1446646Y4798291D01*
G01X1444721Y4798676D01*
G01X1437024Y4804833D01*
G01X1435100Y4806757D01*
G01X1431251Y4809836D01*
G01X1429327Y4811761D01*
G01X1426249Y4814070D01*
G01X1415473Y4824846D01*
G01X1414511Y4825711D01*
G01X1413933Y4825230D01*
G01X1413549Y4777509D01*
G01X1413933Y4729788D01*
G37*
G36*
G01X925035Y5040777D02*
G01X925035Y5034619D01*
G01X908101Y5034619D01*
G01X908486Y5038083D01*
G01X908871Y5043470D01*
G01X909256Y5046549D01*
G01X909619Y5090807D01*
G01X925035Y5090807D01*
G01X925035Y5060019D01*
G01X947741Y5060019D01*
G01X947741Y5060019D01*
G01X970832Y5060404D01*
G01X971216Y5075798D01*
G01X971216Y5090807D01*
G01X985841Y5090807D01*
G01X985841Y5060019D01*
G01X1006622Y5060019D01*
G01X1006622Y5060019D01*
G01X1027789Y5060404D01*
G01X1028174Y5075798D01*
G01X1028174Y5090807D01*
G01X985841Y5090807D01*
G01X971216Y5090807D01*
G01X925035Y5090807D01*
G01X909619Y5090807D01*
G01X909641Y5093501D01*
G01X909328Y5131601D01*
G01X925035Y5131601D01*
G01X925035Y5103892D01*
G01X947741Y5103892D01*
G01X947741Y5103892D01*
G01X970832Y5104277D01*
G01X971216Y5118131D01*
G01X971216Y5131601D01*
G01X985841Y5131601D01*
G01X985841Y5103892D01*
G01X1006622Y5103892D01*
G01X1006622Y5103892D01*
G01X1027789Y5104277D01*
G01X1028174Y5118131D01*
G01X1028174Y5131601D01*
G01X985841Y5131601D01*
G01X971216Y5131601D01*
G01X925035Y5131601D01*
G01X909328Y5131601D01*
G01X909256Y5140453D01*
G01X908871Y5143531D01*
G01X909256Y5144974D01*
G01X910410Y5145455D01*
G01X913105Y5145070D01*
G01X978529Y5144686D01*
G01X1043568Y5145070D01*
G01X1044145Y5144878D01*
G01X1044338Y5143531D01*
G01X1043953Y5140453D01*
G01X1043568Y5091192D01*
G01X1043953Y5041931D01*
G01X1044338Y5038083D01*
G01X1044338Y5035389D01*
G01X1028944Y5035389D01*
G01X1028559Y5037313D01*
G01X1028174Y5043086D01*
G01X1028174Y5046934D01*
G01X925035Y5046934D01*
G01X925035Y5040777D01*
G37*
G36*
G01X1048956Y5246670D02*
G01X1048956Y5238589D01*
G01X1045492Y5238589D01*
G01X1040874Y5238974D01*
G01X975450Y5239358D01*
G01X910026Y5238974D01*
G01X906947Y5238589D01*
G01X905022Y5238589D01*
G01X905022Y5254753D01*
G01X909641Y5254753D01*
G01X915413Y5254367D01*
G01X977759Y5253983D01*
G01X1040105Y5254367D01*
G01X1045108Y5254753D01*
G01X1048956Y5254753D01*
G01X1048956Y5246670D01*
G37*
G36*
G01X1032408Y5166622D02*
G01X1032792Y5164313D01*
G01X1032311Y5163543D01*
G01X1030868Y5163543D01*
G01X1024326Y5163928D01*
G01X1018553Y5164313D01*
G01X975835Y5164698D01*
G01X933116Y5164313D01*
G01X926959Y5163928D01*
G01X921956Y5163928D01*
G01X921956Y5165853D01*
G01X922341Y5168931D01*
G01X922726Y5193946D01*
G01X922524Y5207031D01*
G01X938119Y5207031D01*
G01X938119Y5177013D01*
G01X977374Y5177013D01*
G01X977374Y5177013D01*
G01X1017013Y5177398D01*
G01X1017398Y5192407D01*
G01X1017398Y5207031D01*
G01X938119Y5207031D01*
G01X922524Y5207031D01*
G01X922341Y5218961D01*
G01X922341Y5220886D01*
G01X926189Y5221270D01*
G01X933501Y5220886D01*
G01X938505Y5220501D01*
G01X979298Y5220116D01*
G01X1020092Y5220501D01*
G01X1031638Y5221270D01*
G01X1032504Y5220982D01*
G01X1032792Y5219346D01*
G01X1032408Y5215883D01*
G01X1032022Y5191253D01*
G01X1032408Y5166622D01*
G37*
G36*
G01X1096292Y5040392D02*
G01X1096677Y5036543D01*
G01X1096677Y5033849D01*
G01X1078974Y5033849D01*
G01X1079359Y5037313D01*
G01X1079744Y5043855D01*
G01X1080129Y5048089D01*
G01X1080513Y5095040D01*
G01X1080225Y5129292D01*
G01X1079359Y5140453D01*
G01X1077435Y5138913D01*
G01X1069738Y5131216D01*
G01X1065119Y5127367D01*
G01X1059347Y5122749D01*
G01X1056268Y5120825D01*
G01X1054344Y5119286D01*
G01X1053959Y5121210D01*
G01X1052805Y5124289D01*
G01X1051265Y5126983D01*
G01X1049341Y5130061D01*
G01X1047801Y5132370D01*
G01X1047994Y5133140D01*
G01X1057422Y5138528D01*
G01X1059347Y5140067D01*
G01X1064735Y5143916D01*
G01X1066659Y5145840D01*
G01X1070508Y5148919D01*
G01X1076280Y5154692D01*
G01X1077819Y5157001D01*
G01X1077723Y5158636D01*
G01X1076665Y5160464D01*
G01X1074356Y5163543D01*
G01X1072432Y5166237D01*
G01X1065505Y5176628D01*
G01X1061656Y5182786D01*
G01X1059347Y5186634D01*
G01X1046647Y5212034D01*
G01X1046358Y5213092D01*
G01X1048571Y5215883D01*
G01X1049726Y5217807D01*
G01X1051265Y5219731D01*
G01X1052805Y5221270D01*
G01X1067044Y5221655D01*
G01X1080513Y5221655D01*
G01X1080513Y5237434D01*
G01X1080129Y5254367D01*
G01X1079359Y5262834D01*
G01X1079359Y5263796D01*
G01X1080129Y5264374D01*
G01X1088980Y5264758D01*
G01X1096677Y5264758D01*
G01X1096677Y5260910D01*
G01X1096292Y5255907D01*
G01X1095908Y5238204D01*
G01X1095908Y5221655D01*
G01X1110532Y5221655D01*
G01X1126310Y5222040D01*
G01X1128235Y5221655D01*
G01X1129005Y5213574D01*
G01X1129005Y5206261D01*
G01X1125541Y5206261D01*
G01X1120922Y5206646D01*
G01X1092444Y5207031D01*
G01X1065119Y5207031D01*
G01X1065505Y5205492D01*
G01X1068968Y5197410D01*
G01X1076665Y5183940D01*
G01X1078589Y5180861D01*
G01X1080898Y5177398D01*
G01X1083592Y5173549D01*
G01X1088210Y5167392D01*
G01X1094368Y5159695D01*
G01X1097062Y5157001D01*
G01X1100141Y5153153D01*
G01X1111686Y5141607D01*
G01X1114765Y5139298D01*
G01X1117459Y5136604D01*
G01X1123232Y5131986D01*
G01X1125156Y5130831D01*
G01X1127080Y5129292D01*
G01X1130159Y5126983D01*
G01X1134008Y5124289D01*
G01X1136701Y5121980D01*
G01X1136990Y5120921D01*
G01X1136316Y5120055D01*
G01X1134008Y5117361D01*
G01X1132083Y5114283D01*
G01X1130544Y5111204D01*
G01X1129005Y5108895D01*
G01X1127080Y5109280D01*
G01X1119383Y5115437D01*
G01X1117459Y5117361D01*
G01X1113610Y5120440D01*
G01X1111686Y5122364D01*
G01X1108608Y5124674D01*
G01X1097832Y5135449D01*
G01X1096869Y5136315D01*
G01X1096292Y5135834D01*
G01X1095908Y5088113D01*
G01X1096292Y5040392D01*
G37*
G36*
G01X594976Y5276273D02*
G01X594976Y5270115D01*
G01X578043Y5270115D01*
G01X578427Y5273579D01*
G01X578812Y5278967D01*
G01X579197Y5282046D01*
G01X579560Y5326303D01*
G01X594976Y5326303D01*
G01X594976Y5295515D01*
G01X617682Y5295515D01*
G01X617682Y5295515D01*
G01X640773Y5295900D01*
G01X641157Y5311294D01*
G01X641157Y5326303D01*
G01X655782Y5326303D01*
G01X655782Y5295515D01*
G01X676564Y5295515D01*
G01X676564Y5295515D01*
G01X697730Y5295900D01*
G01X698115Y5311294D01*
G01X698115Y5326303D01*
G01X655782Y5326303D01*
G01X641157Y5326303D01*
G01X594976Y5326303D01*
G01X579560Y5326303D01*
G01X579582Y5328997D01*
G01X579270Y5367097D01*
G01X594976Y5367097D01*
G01X594976Y5339388D01*
G01X617682Y5339388D01*
G01X617682Y5339388D01*
G01X640773Y5339773D01*
G01X641157Y5353627D01*
G01X641157Y5367097D01*
G01X655782Y5367097D01*
G01X655782Y5339388D01*
G01X676564Y5339388D01*
G01X676564Y5339388D01*
G01X697730Y5339773D01*
G01X698115Y5353627D01*
G01X698115Y5367097D01*
G01X655782Y5367097D01*
G01X641157Y5367097D01*
G01X594976Y5367097D01*
G01X579270Y5367097D01*
G01X579197Y5375949D01*
G01X578812Y5379027D01*
G01X579197Y5380471D01*
G01X580351Y5380951D01*
G01X583046Y5380567D01*
G01X648470Y5380182D01*
G01X713509Y5380567D01*
G01X714086Y5380374D01*
G01X714279Y5379027D01*
G01X713894Y5375949D01*
G01X713509Y5326688D01*
G01X713894Y5277427D01*
G01X714279Y5273579D01*
G01X714279Y5270885D01*
G01X698885Y5270885D01*
G01X698500Y5272809D01*
G01X698115Y5278582D01*
G01X698115Y5282430D01*
G01X594976Y5282430D01*
G01X594976Y5276273D01*
G37*
G36*
G01X718897Y5482167D02*
G01X718897Y5474085D01*
G01X715433Y5474085D01*
G01X710815Y5474470D01*
G01X645391Y5474854D01*
G01X579967Y5474470D01*
G01X576888Y5474085D01*
G01X574964Y5474085D01*
G01X574964Y5490249D01*
G01X579582Y5490249D01*
G01X585354Y5489864D01*
G01X647700Y5489479D01*
G01X710046Y5489864D01*
G01X715049Y5490249D01*
G01X718897Y5490249D01*
G01X718897Y5482167D01*
G37*
G36*
G01X702349Y5402118D02*
G01X702733Y5399809D01*
G01X702252Y5399039D01*
G01X700809Y5399039D01*
G01X694267Y5399424D01*
G01X688494Y5399809D01*
G01X645776Y5400194D01*
G01X603057Y5399809D01*
G01X596900Y5399424D01*
G01X591897Y5399424D01*
G01X591897Y5401349D01*
G01X592282Y5404427D01*
G01X592667Y5429443D01*
G01X592465Y5442527D01*
G01X608061Y5442527D01*
G01X608061Y5412509D01*
G01X647315Y5412509D01*
G01X647315Y5412509D01*
G01X686954Y5412894D01*
G01X687339Y5427903D01*
G01X687339Y5442527D01*
G01X608061Y5442527D01*
G01X592465Y5442527D01*
G01X592282Y5454457D01*
G01X592282Y5456382D01*
G01X596130Y5456767D01*
G01X603443Y5456382D01*
G01X608446Y5455997D01*
G01X649239Y5455612D01*
G01X690033Y5455997D01*
G01X701579Y5456767D01*
G01X702445Y5456478D01*
G01X702733Y5454843D01*
G01X702349Y5451379D01*
G01X701964Y5426749D01*
G01X702349Y5402118D01*
G37*
G36*
G01X766233Y5275888D02*
G01X766618Y5272039D01*
G01X766618Y5269346D01*
G01X748915Y5269346D01*
G01X749300Y5272809D01*
G01X749685Y5279351D01*
G01X750070Y5283585D01*
G01X750454Y5330536D01*
G01X750166Y5364788D01*
G01X749300Y5375949D01*
G01X747376Y5374409D01*
G01X739679Y5366712D01*
G01X735061Y5362864D01*
G01X729288Y5358246D01*
G01X726209Y5356321D01*
G01X724285Y5354782D01*
G01X723900Y5356706D01*
G01X722746Y5359785D01*
G01X721206Y5362479D01*
G01X719282Y5365557D01*
G01X717743Y5367867D01*
G01X717935Y5368636D01*
G01X727364Y5374024D01*
G01X729288Y5375564D01*
G01X734676Y5379412D01*
G01X736600Y5381336D01*
G01X740449Y5384415D01*
G01X746221Y5390188D01*
G01X747761Y5392497D01*
G01X747664Y5394132D01*
G01X746606Y5395961D01*
G01X744297Y5399039D01*
G01X742373Y5401733D01*
G01X735446Y5412124D01*
G01X731597Y5418282D01*
G01X729288Y5422130D01*
G01X716588Y5447530D01*
G01X716299Y5448589D01*
G01X718512Y5451379D01*
G01X719667Y5453303D01*
G01X721206Y5455227D01*
G01X722746Y5456767D01*
G01X736985Y5457151D01*
G01X750454Y5457151D01*
G01X750454Y5472930D01*
G01X750070Y5489864D01*
G01X749300Y5498330D01*
G01X749300Y5499293D01*
G01X750070Y5499870D01*
G01X758921Y5500254D01*
G01X766618Y5500254D01*
G01X766618Y5496406D01*
G01X766233Y5491403D01*
G01X765849Y5473700D01*
G01X765849Y5457151D01*
G01X780473Y5457151D01*
G01X796251Y5457536D01*
G01X798176Y5457151D01*
G01X798946Y5449070D01*
G01X798946Y5441757D01*
G01X795482Y5441757D01*
G01X790864Y5442143D01*
G01X762385Y5442527D01*
G01X735061Y5442527D01*
G01X735446Y5440988D01*
G01X738909Y5432906D01*
G01X746606Y5419436D01*
G01X748530Y5416357D01*
G01X750839Y5412894D01*
G01X753533Y5409046D01*
G01X758151Y5402888D01*
G01X764309Y5395191D01*
G01X767003Y5392497D01*
G01X770082Y5388649D01*
G01X781627Y5377103D01*
G01X784706Y5374794D01*
G01X787400Y5372100D01*
G01X793173Y5367482D01*
G01X795097Y5366327D01*
G01X797021Y5364788D01*
G01X800100Y5362479D01*
G01X803949Y5359785D01*
G01X806643Y5357476D01*
G01X806931Y5356418D01*
G01X806257Y5355551D01*
G01X803949Y5352857D01*
G01X802024Y5349779D01*
G01X800485Y5346700D01*
G01X798946Y5344391D01*
G01X797021Y5344776D01*
G01X789324Y5350933D01*
G01X787400Y5352857D01*
G01X783551Y5355936D01*
G01X781627Y5357861D01*
G01X778549Y5360170D01*
G01X767773Y5370946D01*
G01X766811Y5371811D01*
G01X766233Y5371330D01*
G01X765849Y5323609D01*
G01X766233Y5275888D01*
G37*
G04 Text End*
G54D10*

M02*

